
<svg width="60px" height="60px" viewBox="0 0 60 60" version="1.1" xmlns="http://www.w3.org/2000/svg" xmlns:xlink="http://www.w3.org/1999/xlink">
    <g id="Desktop" stroke="none" stroke-width="1" fill="none" fill-rule="evenodd">
        <g id="Platform/Governance" transform="translate(-608.000000, -2418.000000)">
            <g id="ROI" transform="translate(0.000000, 2298.000000)">
                <g id="content" transform="translate(424.000000, 120.000000)">
                    <g id="roi">
                        <g id="icon" transform="translate(184.000000, 0.000000)">
                            <circle id="Oval" fill="#FFFFFF" cx="30" cy="30" r="30"></circle>
                            <g id="Icon/Light/User-Feedback" transform="translate(16.000000, 16.000000)">
                                <path d="M20.1612833,0.000466666667 C15.83295,0.000466666667 12.3236167,3.5098 12.3236167,7.83813333 C12.3236167,10.0244667 13.2207833,11.9996333 14.66395,13.4218 L12.44495,15.6769667 L20.1612833,15.6769667 C24.4907833,15.6769667 28.0001167,12.1676333 28.0001167,7.83813333 C28.0001167,3.5098 24.4907833,0.000466666667 20.1612833,0.000466666667" id="Fill-4" fill="#2FD573"></path>
                                <path d="M7.77793333,20.2223 C3.48226667,20.2223 -0.000233333333,23.7036333 -0.000233333333,28.0004667 L15.5561,28.0004667 C15.5561,23.7036333 12.0736,20.2223 7.77793333,20.2223 M12.4446,14.0004667 C12.4446,16.5776333 10.3551,18.6671333 7.77793333,18.6671333 C5.20076667,18.6671333 3.11126667,16.5776333 3.11126667,14.0004667 C3.11126667,11.4221333 5.20076667,9.3338 7.77793333,9.3338 C10.3551,9.3338 12.4446,11.4221333 12.4446,14.0004667" id="Fill-1" fill="#1B202A"></path>
                                <path d="M16.6612833,6.67123333 C17.30645,6.67123333 17.82795,7.1939 17.82795,7.8379 C17.82795,8.48306667 17.30645,9.00456667 16.6612833,9.00456667 C16.0172833,9.00456667 15.4946167,8.48306667 15.4946167,7.8379 C15.4946167,7.1939 16.0172833,6.67123333 16.6612833,6.67123333 Z M20.1612833,6.67123333 C20.80645,6.67123333 21.32795,7.1939 21.32795,7.8379 C21.32795,8.48306667 20.80645,9.00456667 20.1612833,9.00456667 C19.5172833,9.00456667 18.9946167,8.48306667 18.9946167,7.8379 C18.9946167,7.1939 19.5172833,6.67123333 20.1612833,6.67123333 Z M23.6612833,6.67123333 C24.30645,6.67123333 24.82795,7.1939 24.82795,7.8379 C24.82795,8.48306667 24.30645,9.00456667 23.6612833,9.00456667 C23.0172833,9.00456667 22.4946167,8.48306667 22.4946167,7.8379 C22.4946167,7.1939 23.0172833,6.67123333 23.6612833,6.67123333 Z" id="Combined-Shape" fill="#1B202A"></path>
                            </g>
                        </g>
                    </g>
                </g>
            </g>
        </g>
    </g>
</svg>