
<svg width="427px" height="152px" viewBox="0 0 427 152" version="1.1" xmlns="http://www.w3.org/2000/svg" xmlns:xlink="http://www.w3.org/1999/xlink">
    <defs>
        <polygon id="path-1" points="0.234042688 0.218634146 114.659059 0.218634146 114.659059 71.7572911 0.234042688 71.7572911"></polygon>
    </defs>
    <g id="Desktop" stroke="none" stroke-width="1" fill="none" fill-rule="evenodd">
        <g id="comcast" transform="translate(-240.000000, -146.000000)">
            <g id="content" transform="translate(240.000000, 146.000000)">
                <g id="comcast-logo">
                    <g id="Group-3" transform="translate(156.000000, 0.000000)">
                        <mask id="mask-2" fill="white">
                            <use xlink:href="#path-1"></use>
                        </mask>
                        <g id="Clip-2"></g>
                        <path d="M57.305013,8.01518049 C58.8816673,5.37137561 61.4975967,2.60508293 64.3144554,1.43508293 C69.1628383,-0.830282927 75.6614071,0.143912195 79.6171506,3.72854634 C83.4454963,7.2899122 85.386816,12.1709854 84.4706636,17.6280585 C85.409474,17.4502537 86.3572621,16.8329854 87.3512212,16.4817659 C93.2931729,14.7594732 99.5775595,16.6270829 103.387522,21.8589366 C106.24927,25.5937171 106.996983,31.3963024 105.279251,35.9081561 C104.426797,38.1774732 102.972838,40.2180585 101.082392,41.9592293 L101.273061,42.1559122 C106.801184,42.4316195 112.233972,46.8403024 113.910664,52.2455707 C115.728861,57.6978146 114.129548,63.5241073 110.246909,67.5117659 C107.07479,70.7315707 102.995924,71.8458146 98.4617602,71.7518634 L16.1448457,71.7518634 C9.38592379,71.9015707 4.16347026,68.8266439 1.35174164,62.6544 C-0.85420632,57.3562537 0.235087361,50.5799122 4.35456691,46.5413268 C6.95211338,43.7517659 10.2063141,42.6094244 13.7153104,42.0343024 C9.74161152,38.2481561 7.82722491,33.0676683 8.94387918,27.5122537 C9.74161152,23.0104976 13.4784703,18.4521073 17.7710911,16.879522 C21.5532658,15.3350341 26.6761097,15.6063512 30.13979,17.7026927 L30.2629126,17.5481561 C29.2193625,11.4220098 31.8626524,5.89513171 36.8110725,2.50674146 C41.2229684,-0.558087805 48.2772993,-0.479063415 52.5972807,2.77893659 C54.5390279,3.99986341 56.1383401,6.0966439 57.305013,8.01518049" id="Fill-1" fill="#FFFFFF" mask="url(#mask-2)"></path>
                    </g>
                    <path d="M238.031174,10.5797839 C239.910213,14.0412284 238.806312,18.5767284 236.845989,21.6844396 L221.675176,52.854028 L221.543943,53 L216.060309,21.3796401 C215.620292,18.3432561 219.17312,17.0477544 221.263767,15.5888636 C221.157509,15.1426536 220.619863,15.1646324 220.281563,14.9568711 L215.155754,14.9079373 L215,14.7665269 C215.029516,10.8410406 217.343123,7.21620696 221.263767,5.31110619 C225.360146,3.149725 231.128951,3.73734533 234.681779,6.50915498 C236.124889,7.68439564 237.340043,9.04998049 238.031174,10.5797839" id="Fill-4" fill="#645FAA"></path>
                    <path d="M210.356331,9.41386071 C211.592299,11.51696 212.306716,13.9043293 211.87209,16.5480829 L205.704474,52.8851266 C205.737976,52.9292446 205.680479,52.9783572 205.631584,53 L204.034333,50.0765547 L188.576132,18.3406909 C187.137791,14.2543603 188.470192,9.9819847 191.708156,7.05312866 C194.970568,4.0098154 200.337295,3.18447484 204.603874,4.83515596 C206.862571,5.7316681 209.019856,7.38234922 210.356331,9.41386071" id="Fill-6" fill="#C9234A"></path>
                    <path d="M256.738264,26.9287642 C258.717549,30.1946649 258.27249,35.1368724 256.071322,38.1676483 C254.70814,40.2962785 252.456995,41.3585092 250.551384,42.7538334 L220.070227,63 L220,63 L220.340795,62.0315691 L236.497773,26.7424153 C238.91867,22.5827066 243.538581,20.4761714 248.425182,21.1115088 C251.773681,21.7030729 255.121317,23.8091912 256.738264,26.9287642" id="Fill-8" fill="#0089CF"></path>
                    <path d="M190.303035,26.7000703 L207,63 L206.731315,63 L173.0687,40.364669 C169.642969,37.5483491 168.238791,33.3299219 169.401666,29.0672483 C170.272752,25.8723302 172.990833,22.886956 176.224464,21.7027408 C181.519009,19.8118369 187.483984,21.8229573 190.303035,26.7000703" id="Fill-10" fill="#F36F21"></path>
                    <path d="M266.077227,51.2120718 C267.737325,54.9778306 267.08336,60.1343242 264.710462,63.3372423 C262.355341,66.4055878 259.205728,68.0822893 255.509662,67.9754496 L220,68 L249.747151,45.7700662 C252.653803,43.7587519 257.071559,43.3945876 260.243183,45.0230975 C262.692694,46.0555783 264.998714,48.6338251 266.077227,51.2120718" id="Fill-12" fill="#0DB14B"></path>
                    <path d="M160.920494,51.2120718 C159.264986,54.9778306 159.914321,60.1343242 162.292394,63.3372423 C164.647609,66.4055878 167.788037,68.0822893 171.488485,67.9754496 L207,68 L177.250804,45.7700662 C174.344882,43.7587519 169.927795,43.3945876 166.759853,45.0230975 C164.308973,46.0555783 162.003707,48.6338251 160.920494,51.2120718" id="Fill-14" fill="#FDB913"></path>
                    <path d="M95.4950984,145.794644 C81.5421727,145.794644 70.1879453,134.443727 70.1879453,120.498509 C70.1879453,106.556273 81.5421727,95.2049296 95.4950984,95.2049296 C109.44845,95.2049296 120.802678,106.556699 120.802678,120.498509 C120.802678,134.443727 109.44845,145.794644 95.4950984,145.794644 M95.4950984,89 C78.1208587,89 64,103.126751 64,120.498082 C64,137.8643 78.1208587,152 95.4950984,152 C112.869764,152 127,137.8643 127,120.498082 C127,103.127177 112.869764,89 95.4950984,89" id="Fill-16" fill="#FFFFFF"></path>
                    <path d="M370.287754,120.895692 C368.614684,120.009274 358.435751,114.717191 356.973661,113.949672 C351.634605,111.191976 349.741272,108.756885 349.741272,104.63206 C349.741272,98.8993242 354.401817,95.1968261 361.62872,95.1968261 C365.871102,95.1968261 369.97255,97.0821682 372.379408,98.4492968 C372.816137,98.6905047 373.333881,98.8264505 373.872724,98.8264505 C375.555077,98.8264505 376.936573,97.4320474 376.936573,95.7329383 C376.936573,94.5886925 376.314604,93.5838018 375.402327,93.0476896 C372.370969,91.3396311 367.202385,89 361.62872,89 C351.009261,89 343.600915,95.4235445 343.600915,104.63206 C343.600915,112.896199 348.980901,116.793453 354.244004,119.510238 C355.718753,120.268807 366.014569,125.629076 367.557253,126.451144 C371.623679,128.599854 373.872724,131.825476 373.872724,135.53735 C373.872724,140.511517 369.699121,145.799765 361.976415,145.799765 C354.463845,145.799765 348.630674,140.711387 347.020054,139.143962 L346.538598,138.680297 L342,142.859671 L342.530825,143.395783 C344.545261,145.413662 351.91352,152 361.976415,152 C373.257084,152 380,143.627615 380,135.53735 C380,129.495647 376.4644,124.156686 370.287754,120.895692" id="Fill-18" fill="#FFFFFF"></path>
                    <path d="M31.1037407,95.2048877 C37.7845523,95.2048877 44.0617035,97.8400793 48.7730394,102.604645 C49.8947861,103.736022 52.0035856,103.736022 53.1072328,102.604645 C53.6906252,102.027665 54,101.251255 54,100.419874 C54,99.5974419 53.6906252,98.811657 53.1072328,98.2346762 L52.7305111,97.8439144 C46.9062678,92.1384519 39.2203038,89 31.1037407,89 C13.9542758,89 0,103.132195 0,120.493182 C0,137.864396 13.9542758,152 31.1037407,152 C40.1576884,152 48.3150806,148.067241 54,141.797581 L49.6700158,137.409714 C45.0933737,142.551832 38.4706488,145.795112 31.1033198,145.795112 C17.3283551,145.795112 6.11551863,134.439584 6.11551863,120.493608 C6.11593954,106.561268 17.328776,95.2048877 31.1037407,95.2048877" id="Fill-20" fill="#FFFFFF"></path>
                    <path d="M244.102155,95.2049296 C250.772313,95.2049296 257.055356,97.8401391 261.765113,102.604738 C262.881855,103.736122 264.99079,103.736122 266.094067,102.604738 C266.676843,102.027753 267,101.251338 267,100.419951 C267,99.5975135 266.676422,98.8117234 266.094067,98.2347387 L265.721679,97.8439743 C259.886343,92.1384731 252.21137,89 244.102155,89 C226.95465,89 213,103.131439 213,120.492969 C213,137.8643 226.95465,152 244.102155,152 C253.148862,152 261.303521,148.067214 266.994951,141.797512 L262.661789,137.409616 C258.08668,142.551768 251.456917,145.79507 244.102155,145.79507 C230.327178,145.79507 219.113049,134.439465 219.113049,120.493395 C219.113049,106.561387 230.327178,95.2049296 244.102155,95.2049296" id="Fill-22" fill="#FFFFFF"></path>
                    <path d="M192.454551,89 C191.31466,89 190.414944,89.7495688 189.924987,90.7164657 C189.426258,91.6842148 171.758572,136.269283 171.754395,136.269283 C171.754395,136.269283 154.086709,91.6837887 153.592157,90.7164657 C153.098023,89.7491427 152.199142,89 151.059251,89 C149.727638,89 148.726004,89.999283 148.374304,91.2580813 C148.022605,92.52455 138.053465,148.637807 138.053465,148.637807 C138.017543,148.820618 138,149.0111 138,149.205843 C138,150.749724 139.233455,152 140.738412,152 C142.074202,152 143.187361,151.028416 143.427536,149.742771 L152.060885,101.732868 C152.060885,101.732868 168.718166,143.714261 169.203528,144.713117 C169.693485,145.708139 170.601555,146.48498 171.759407,146.48498 C172.916842,146.48498 173.821153,145.708139 174.306097,144.713117 C174.796054,143.713834 191.452917,101.732868 191.452917,101.732868 L200.4246,151.654406 L206,151.654406 C206,151.654406 195.49621,92.52455 195.14451,91.2580813 C194.787381,89.999283 193.785329,89 192.454551,89" id="Fill-24" fill="#FFFFFF"></path>
                    <path d="M292.924199,122.23288 L302.373823,99.2016503 L311.832905,122.23288 L292.924199,122.23288 Z M302.374253,89.0000177 C301.187246,88.9957563 300.266789,89.7632225 299.748736,90.7620791 C299.234983,91.7571005 276.215819,148.111959 276.215819,148.111959 C276.078245,148.443491 276,148.81167 276,149.202008 C276,150.74589 277.260523,152 278.81855,152 C280.005557,152 281.023176,151.264494 281.440627,150.224302 L290.376498,128.434399 L314.376737,128.434399 L323.909765,151.650145 L330,151.650145 C330,151.650145 305.500195,91.7566744 304.99633,90.761653 C304.495904,89.7632225 303.565559,88.9957563 302.374253,89.0000177 Z" id="Fill-26" fill="#FFFFFF"></path>
                    <path d="M423.837586,89 L388.148536,89 C386.409902,89 385,90.4057826 385,92.1364075 C385,93.8584158 386.409902,95.2637676 388.148536,95.2637676 L403.107987,95.2637676 L403.107987,152 L408.887243,152 L408.887243,95.2641984 L423.837586,95.2641984 C425.57622,95.2641984 427,93.8588466 427,92.1368383 C427,90.4057826 425.57622,89 423.837586,89" id="Fill-28" fill="#FFFFFF"></path>
                </g>
            </g>
        </g>
    </g>
</svg>