
<svg width="544px" height="328px" viewBox="0 0 544 328" version="1.1" xmlns="http://www.w3.org/2000/svg" xmlns:xlink="http://www.w3.org/1999/xlink">
    <g id="Desktop" stroke="none" stroke-width="1" fill="none" fill-rule="evenodd">
        <g id="Platform/Deployment" transform="translate(-960.000000, -152.000000)">
            <g id="Hero">
                <g id="deployment" transform="translate(960.000000, 152.000000)">
                    <g id="Right" opacity="0.400000006" transform="translate(314.000000, 230.000000)">
                        <polygon id="Fill-2" fill="#FFFFFF" points="96.6905455 65.4676364 31.6723636 66.4930909 0.00327272727 98.1621818 39.9087273 122.238545"></polygon>
                        <g id="Group-7" transform="translate(43.636364, 0.000000)" fill="#2ED573">
                            <path d="M151.865455,71.3476364 C144.621818,78.5912727 132.872727,78.5912727 125.629091,71.3476364 C118.385455,64.0930909 118.385455,52.3549091 125.629091,45.1003636 C132.872727,37.8567273 144.621818,37.8567273 151.865455,45.1003636 C159.109091,52.3549091 159.109091,64.0930909 151.865455,71.3476364 M184.669091,12.2967273 C142.483636,5.62036364 98.0618182,20.7185455 66.2072727,52.5730909 L3.22909091,115.562182 L81.4145455,193.747636 L144.392727,130.758545 C176.247273,98.904 191.356364,54.4821818 184.669091,12.2967273" id="Fill-3"></path>
                        </g>
                    </g>
                    <g id="Middle" transform="translate(256.000000, 0.000000)">
                        <polygon id="Fill-1" fill="#FFFFFF" points="118.524 190.276727 142.491273 229.996727 167.451273 205.047636 175.022182 133.778545"></polygon>
                        <polygon id="Fill-2" fill="#FFFFFF" points="96.6905455 55.4676364 31.6723636 56.4930909 0.00327272727 88.1621818 39.9087273 112.238545"></polygon>
                        <g id="Group-7" transform="translate(46.636364, 0.000000)">
                            <path d="M148.865455,61.3476364 C141.621818,68.5912727 129.872727,68.5912727 122.629091,61.3476364 C115.385455,54.0930909 115.385455,42.3549091 122.629091,35.1003636 C129.872727,27.8567273 141.621818,27.8567273 148.865455,35.1003636 C156.109091,42.3549091 156.109091,54.0930909 148.865455,61.3476364 M181.669091,2.29672727 C139.483636,-4.37963636 95.0618182,10.7185455 63.2072727,42.5730909 L0.229090909,105.562182 L78.4145455,183.747636 L141.392727,120.758545 C173.247273,88.904 188.356364,44.4821818 181.669091,2.29672727" id="Fill-3" fill="#2ED573"></path>
                            <polygon id="Fill-5" fill="#FFFFFF" points="31.0810909 165.879636 17.9574545 152.756 82.6592727 88.0650909 95.772 101.177818"></polygon>
                        </g>
                    </g>
                    <g id="Left" opacity="0.400000006" transform="translate(0.000000, 136.000000)">
                        <polygon id="Fill-1" fill="#FFFFFF" points="118.524 200.276727 142.491273 239.996727 167.451273 215.047636 175.022182 143.778545"></polygon>
                        <polygon id="Fill-2" fill="#FFFFFF" points="96.6905455 65.4676364 31.6723636 66.4930909 0.00327272727 98.1621818 39.9087273 122.238545"></polygon>
                        <g id="Group-7" transform="translate(43.636364, 0.000000)">
                            <path d="M151.865455,71.3476364 C144.621818,78.5912727 132.872727,78.5912727 125.629091,71.3476364 C118.385455,64.0930909 118.385455,52.3549091 125.629091,45.1003636 C132.872727,37.8567273 144.621818,37.8567273 151.865455,45.1003636 C159.109091,52.3549091 159.109091,64.0930909 151.865455,71.3476364 M184.669091,12.2967273 C142.483636,5.62036364 98.0618182,20.7185455 66.2072727,52.5730909 L3.22909091,115.562182 L81.4145455,193.747636 L144.392727,130.758545 C176.247273,98.904 191.356364,54.4821818 184.669091,12.2967273" id="Fill-3" fill="#2ED573"></path>
                            <polygon id="Fill-5" fill="#FFFFFF" points="34.0810909 175.879636 20.9574545 162.756 85.6592727 98.0650909 98.772 111.177818"></polygon>
                        </g>
                    </g>
                </g>
            </g>
        </g>
    </g>
</svg>