<?xml version="1.0" encoding="utf-8"?>
<!-- Generator: Adobe Illustrator 22.1.0, SVG Export Plug-In . SVG Version: 6.00 Build 0)  -->
<svg version="1.1" xmlns="http://www.w3.org/2000/svg" xmlns:xlink="http://www.w3.org/1999/xlink" x="0px" y="0px"
	 viewBox="0 0 166.2 141.8" style="enable-background:new 0 0 166.2 141.8;" xml:space="preserve">
<style type="text/css">
	.st0{fill-rule:evenodd;clip-rule:evenodd;fill:#066DA5;}
	.st1{fill:#006EA5;}
</style>
<g id="Shape">
	<path class="st0" d="M157.3,57.2c-3.4-2.3-11.3-3.1-17.4-2c-0.8-5.7-4-10.7-9.8-15.2l-3.3-2.2l-2.2,3.3c-2.9,4.3-4.3,10.3-3.8,16
		c0.2,2,0.9,5.6,2.9,8.8c-2.1,1.1-6.2,2.6-11.5,2.5H8.6l-0.2,1.2c-1,5.7-1,23.7,10.7,37.4c8.8,10.5,22.1,15.8,39.4,15.8
		c37.5,0,65.2-17.3,78.2-48.6c5.1,0.1,16.1,0,21.8-10.8c0.1-0.2,0.5-0.9,1.5-2.9l0.5-1.1L157.3,57.2z M75.7,31.2h15.7V16.9H75.7
		V31.2z M75.7,48.4h15.7V34.1H75.7V48.4z M57.1,48.4h15.7V34.1H57.1V48.4z M38.5,48.4h15.7V34.1H38.5V48.4z M19.8,65.5h15.7V51.2
		H19.8V65.5z M38.5,65.5h15.7V51.2H38.5V65.5z M57.1,65.5h15.7V51.2H57.1V65.5z M75.7,65.5h15.7V51.2H75.7V65.5z M94.3,65.5H110
		V51.2H94.3V65.5z"/>
</g>
<g id="Trademark">
	<g>
		<path class="st1" d="M106.5,117.6c0,1.1-0.9,2-2,2c-1.1,0-2-0.9-2-2c0-1.1,0.9-2,2-2C105.6,115.6,106.5,116.5,106.5,117.6z
			 M102.9,117.6c0,0.9,0.6,1.6,1.5,1.6c0.9,0,1.5-0.7,1.5-1.6c0-0.9-0.6-1.6-1.5-1.6C103.6,116,102.9,116.7,102.9,117.6z
			 M104.1,118.6h-0.5v-2c0.2,0,0.4-0.1,0.8-0.1c0.4,0,0.5,0.1,0.7,0.1c0.1,0.1,0.2,0.2,0.2,0.4c0,0.2-0.2,0.4-0.4,0.5v0
			c0.2,0.1,0.3,0.2,0.4,0.5c0.1,0.3,0.1,0.4,0.1,0.5h-0.5c-0.1-0.1-0.1-0.3-0.2-0.5c0-0.2-0.2-0.3-0.4-0.3h-0.2V118.6z M104.1,117.5
			h0.2c0.3,0,0.5-0.1,0.5-0.3c0-0.2-0.1-0.3-0.4-0.3c-0.1,0-0.2,0-0.3,0V117.5z"/>
	</g>
</g>
</svg>
