
<svg width="640px" height="347px" viewBox="0 0 640 347" version="1.1" xmlns="http://www.w3.org/2000/svg" xmlns:xlink="http://www.w3.org/1999/xlink">
    <g id="Desktop" stroke="none" stroke-width="1" fill="none" fill-rule="evenodd">
        <g id="Platform/Governance" transform="translate(-1022.000000, -133.000000)">
            <g id="Hero">
                <g id="Governance" transform="translate(1022.000000, 133.000000)">
                    <g id="Left" opacity="0.400000006" transform="translate(448.000000, 0.000000)">
                        <path d="M147.891818,18.9863636 C126.519091,18.9863636 94.0554545,33.65 63.8554545,63.8590909 C22.1918182,105.531818 10.0918182,151.504545 25.2918182,166.713636 C32.9281818,174.340909 47.7009091,175.240909 65.8554545,169.186364 C86.3918182,162.35 108.519091,147.768182 128.137273,128.140909 C169.81,86.4681818 181.91,40.4863636 166.71,25.2863636 C162.528182,21.1045455 156.01,18.9863636 147.891818,18.9863636 M44.1372727,191.377273 C31.1190909,191.377273 20.2645455,187.404545 12.4372727,179.568182 C-12.79,154.331818 4.14636364,97.8590909 51.0009091,50.9954545 C97.8736364,4.14090909 154.337273,-12.7863636 179.564545,12.4318182 C204.800909,37.6681818 187.855455,94.1409091 140.991818,140.995455 C119.41,162.577273 94.7736364,178.713636 71.6009091,186.440909 C61.7190909,189.731818 52.4827273,191.377273 44.1372727,191.377273" id="Fill-1" fill="#2FD573"></path>
                        <path d="M63.8545455,128.139091 C105.518182,169.802727 151.509091,181.911818 166.709091,166.711818 C181.909091,151.502727 169.809091,105.53 128.136364,63.8572727 C108.509091,44.2390909 86.3909091,29.6572727 65.8545455,22.8027273 C47.7,16.7663636 32.9272727,17.6572727 25.2909091,25.2936364 C10.0909091,40.4845455 22.1909091,86.4663636 63.8545455,128.139091 M147.890909,191.239091 C119.872727,191.239091 83.1727273,173.166364 51,140.993636 C4.14545455,94.13 -12.8,37.6663636 12.4363636,12.43 C25.2909091,-0.442727273 46.3,-2.87 71.6090909,5.55727273 C94.7636364,13.2754545 119.409091,29.4209091 140.990909,51.0027273 C187.854545,97.8572727 204.8,154.33 179.572727,179.566364 C171.654545,187.466364 160.681818,191.239091 147.890909,191.239091" id="Fill-3" fill="#2FD573"></path>
                        <path d="M114.182727,95.8681818 C114.182727,105.904545 106.037273,114.05 96.0009091,114.05 C85.9645455,114.05 77.8190909,105.904545 77.8190909,95.8681818 C77.8190909,85.8318182 85.9645455,77.6863636 96.0009091,77.6863636 C106.037273,77.6863636 114.182727,85.8318182 114.182727,95.8681818" id="Fill-5" fill="#FFFFFF"></path>
                    </g>
                    <g id="Middle" transform="translate(224.000000, 100.000000)">
                        <path d="M147.891818,18.9863636 C126.519091,18.9863636 94.0554545,33.65 63.8554545,63.8590909 C22.1918182,105.531818 10.0918182,151.504545 25.2918182,166.713636 C32.9281818,174.340909 47.7009091,175.240909 65.8554545,169.186364 C86.3918182,162.35 108.519091,147.768182 128.137273,128.140909 C169.81,86.4681818 181.91,40.4863636 166.71,25.2863636 C162.528182,21.1045455 156.01,18.9863636 147.891818,18.9863636 M44.1372727,191.377273 C31.1190909,191.377273 20.2645455,187.404545 12.4372727,179.568182 C-12.79,154.331818 4.14636364,97.8590909 51.0009091,50.9954545 C97.8736364,4.14090909 154.337273,-12.7863636 179.564545,12.4318182 C204.800909,37.6681818 187.855455,94.1409091 140.991818,140.995455 C119.41,162.577273 94.7736364,178.713636 71.6009091,186.440909 C61.7190909,189.731818 52.4827273,191.377273 44.1372727,191.377273" id="Fill-1" fill="#2FD573"></path>
                        <path d="M63.8545455,128.139091 C105.518182,169.802727 151.509091,181.911818 166.709091,166.711818 C181.909091,151.502727 169.809091,105.53 128.136364,63.8572727 C108.509091,44.2390909 86.3909091,29.6572727 65.8545455,22.8027273 C47.7,16.7663636 32.9272727,17.6572727 25.2909091,25.2936364 C10.0909091,40.4845455 22.1909091,86.4663636 63.8545455,128.139091 M147.890909,191.239091 C119.872727,191.239091 83.1727273,173.166364 51,140.993636 C4.14545455,94.13 -12.8,37.6663636 12.4363636,12.43 C25.2909091,-0.442727273 46.3,-2.87 71.6090909,5.55727273 C94.7636364,13.2754545 119.409091,29.4209091 140.990909,51.0027273 C187.854545,97.8572727 204.8,154.33 179.572727,179.566364 C171.654545,187.466364 160.681818,191.239091 147.890909,191.239091" id="Fill-3" fill="#2FD573"></path>
                        <path d="M114.182727,95.8681818 C114.182727,105.904545 106.037273,114.05 96.0009091,114.05 C85.9645455,114.05 77.8190909,105.904545 77.8190909,95.8681818 C77.8190909,85.8318182 85.9645455,77.6863636 96.0009091,77.6863636 C106.037273,77.6863636 114.182727,85.8318182 114.182727,95.8681818" id="Fill-5" fill="#FFFFFF"></path>
                    </g>
                    <g id="Left" opacity="0.400000006" transform="translate(0.000000, 200.000000)">
                        <path d="M147.891818,18.9863636 C126.519091,18.9863636 94.0554545,33.65 63.8554545,63.8590909 C22.1918182,105.531818 10.0918182,151.504545 25.2918182,166.713636 C32.9281818,174.340909 47.7009091,175.240909 65.8554545,169.186364 C86.3918182,162.35 108.519091,147.768182 128.137273,128.140909 C169.81,86.4681818 181.91,40.4863636 166.71,25.2863636 C162.528182,21.1045455 156.01,18.9863636 147.891818,18.9863636 M44.1372727,191.377273 C31.1190909,191.377273 20.2645455,187.404545 12.4372727,179.568182 C-12.79,154.331818 4.14636364,97.8590909 51.0009091,50.9954545 C97.8736364,4.14090909 154.337273,-12.7863636 179.564545,12.4318182 C204.800909,37.6681818 187.855455,94.1409091 140.991818,140.995455 C119.41,162.577273 94.7736364,178.713636 71.6009091,186.440909 C61.7190909,189.731818 52.4827273,191.377273 44.1372727,191.377273" id="Fill-1" fill="#2FD573"></path>
                        <path d="M63.8545455,128.139091 C105.518182,169.802727 151.509091,181.911818 166.709091,166.711818 C181.909091,151.502727 169.809091,105.53 128.136364,63.8572727 C108.509091,44.2390909 86.3909091,29.6572727 65.8545455,22.8027273 C47.7,16.7663636 32.9272727,17.6572727 25.2909091,25.2936364 C10.0909091,40.4845455 22.1909091,86.4663636 63.8545455,128.139091 M147.890909,191.239091 C119.872727,191.239091 83.1727273,173.166364 51,140.993636 C4.14545455,94.13 -12.8,37.6663636 12.4363636,12.43 C25.2909091,-0.442727273 46.3,-2.87 71.6090909,5.55727273 C94.7636364,13.2754545 119.409091,29.4209091 140.990909,51.0027273 C187.854545,97.8572727 204.8,154.33 179.572727,179.566364 C171.654545,187.466364 160.681818,191.239091 147.890909,191.239091" id="Fill-3" fill="#2FD573"></path>
                        <path d="M114.182727,95.8681818 C114.182727,105.904545 106.037273,114.05 96.0009091,114.05 C85.9645455,114.05 77.8190909,105.904545 77.8190909,95.8681818 C77.8190909,85.8318182 85.9645455,77.6863636 96.0009091,77.6863636 C106.037273,77.6863636 114.182727,85.8318182 114.182727,95.8681818" id="Fill-5" fill="#FFFFFF"></path>
                    </g>
                </g>
            </g>
        </g>
    </g>
</svg>