<?xml version="1.0" encoding="UTF-8"?>
<svg width="192px" height="36px" viewBox="0 0 192 36" version="1.1" xmlns="http://www.w3.org/2000/svg" xmlns:xlink="http://www.w3.org/1999/xlink">
    <!-- Generator: Sketch 52.6 (67491) - http://www.bohemiancoding.com/sketch -->
    <title>PNP</title>
    <desc>Created with Sketch.</desc>
    <g id="Desktop" stroke="none" stroke-width="1" fill="none" fill-rule="evenodd">
        <g id="Company" transform="translate(-1050.000000, -2690.000000)">
            <g id="advisors/investors" transform="translate(0.000000, 1916.000000)">
                <g id="content" transform="translate(240.000000, 120.000000)">
                    <g id="logo" transform="translate(744.000000, 592.000000)">
                        <g id="PNP" transform="translate(66.013393, 62.000000)">
                            <path d="M8.14851367,0.400870588 L2.20268248e-13,0.400870588 L2.20268248e-13,35.4773118 L5.53292303,35.4773118 L5.53292303,22.2987176 L8.14851367,22.2987176 C13.6814898,22.2987176 16.3976433,19.2420529 16.3976433,13.6298118 L16.3976433,9.06977647 C16.3976433,3.45753529 13.6814898,0.400870588 8.14851367,0.400870588 Z M8.14851367,5.41180588 C9.90900125,5.41180588 10.8647203,6.21354706 10.8647203,8.71898824 L10.8647203,13.9804412 C10.8647203,16.4859353 9.90900125,17.2876765 8.14851367,17.2876765 L5.53292303,17.2876765 L5.53292303,5.41180588 L8.14851367,5.41180588 Z M18.4600319,35.4773118 L33.0971877,35.4773118 L33.0971877,30.4663765 L23.992955,30.4663765 L23.992955,0.401082353 L18.4600319,0.401082353 L18.4600319,35.4773118 Z M34.5054928,0.400658824 L34.5054928,27.1090588 C34.5054928,32.7213 37.3222623,35.9283176 42.7545162,35.9283176 C48.1867702,35.9283176 51.0039645,32.7213 51.0039645,27.1090588 L51.0039645,0.400658824 L45.7724646,0.400870588 L45.7724646,27.4598471 C45.7724646,29.9652882 44.6659543,30.8672471 42.9053075,30.8672471 C41.1446606,30.8672471 40.0387875,29.9652882 40.0387875,27.4598471 L40.0387875,0.400870588 L34.5054928,0.400658824 Z M62.321908,20.9456471 L64.836511,20.9456471 L64.836511,27.4097647 C64.836511,29.9152588 63.7300007,30.8172176 61.9693538,30.8172176 C60.208707,30.8172176 59.1027277,29.9152588 59.1027277,27.4097647 L59.1027277,8.46847059 C59.1027277,5.96297647 60.2092379,5.01093529 61.9693538,5.01093529 C63.7294697,5.01093529 64.836511,5.96297647 64.836511,8.46847059 L64.836511,12.2266588 L70.0680108,12.2266588 L70.0680108,8.81920588 C70.0680108,3.20696471 67.2512944,-1.36779477e-13 61.8185626,-1.36779477e-13 C56.3858308,-1.36779477e-13 53.5696453,3.20696471 53.5696453,8.81920588 L53.5696453,27.0589765 C53.5696453,32.6712176 56.3863617,35.8781824 61.8185626,35.8781824 C67.2507635,35.8781824 70.0680108,32.6712176 70.0680108,27.0589765 L70.0680108,15.9347118 L62.321908,15.9347118 L62.321908,20.9456471 Z" id="PLUG" fill="#4E4E4E"></path>
                            <path d="M128.668986,0.411194118 L120.520419,0.411194118 L120.520419,35.4876353 L126.053502,35.4876353 L126.053502,22.3089353 L128.668986,22.3089353 C134.202068,22.3089353 136.918434,19.2522706 136.918434,13.6400294 L136.918434,9.0801 C136.918434,3.46785882 134.202068,0.411194118 128.668986,0.411194118 Z M128.668986,5.42212941 C130.429633,5.42212941 131.385352,6.22387059 131.385352,8.72931176 L131.385352,13.9908176 C131.385352,16.4962588 130.429633,17.298 128.668986,17.298 L126.053502,17.298 L126.053502,5.42212941 L128.668986,5.42212941 Z M138.980664,35.4876353 L153.617501,35.4876353 L153.617501,30.4767 L144.513746,30.4767 L144.513746,0.411405882 L138.980664,0.411405882 L138.980664,35.4876353 Z M169.311469,0.410982353 L161.212812,0.410982353 L155.57938,35.4874235 L160.659557,35.4874235 L161.615276,29.1235765 L168.40566,29.1235765 L169.361379,35.4874235 L174.944902,35.4874235 L169.311469,0.410982353 Z M164.985779,6.62452941 L167.651173,24.3631588 L162.319854,24.3631588 L164.985779,6.62452941 Z M178.667428,35.4874235 L184.20051,35.4874235 L184.20051,23.8622824 L191.192126,0.411194118 L185.910716,0.411194118 L181.685376,16.3960412 L177.460567,0.411194118 L171.675812,0.411194118 L178.667428,23.8622824 L178.667428,35.4876353 L178.667428,35.4874235 Z" id="PLAY" fill="#4E4E4E"></path>
                            <path d="M83.0057919,4.38522353 L76.8005205,4.38522353 L72.4843871,31.2610765 L76.3768184,31.2610765 L77.1090054,26.3851941 L82.3118337,26.3851941 L83.0440207,31.2610765 L87.3219253,31.2610765 L83.0057919,4.38522353 Z M79.6910397,9.14611765 L81.7341546,22.7376 L77.6484557,22.7376 L79.6910397,9.14611765 Z" id="A" fill="#0095CD"></path>
                            <polygon id="N" fill="#EB1F24" points="97.7716512 31.2356647 102.126544 31.2356647 102.126544 4.35986471 98.3498612 4.35986471 98.3498612 20.4469412 93.9949681 4.35986471 88.6763916 4.35986471 88.6763916 31.2356647 92.4918344 31.2356647 92.4918344 11.7698824"></polygon>
                            <path d="M104.592299,31.2610765 L111.298261,31.2610765 C115.537406,31.2610765 117.61875,28.9190647 117.61875,24.6189176 L117.61875,11.0275412 C117.61875,6.72739412 115.537406,4.38532941 111.298261,4.38532941 L104.592299,4.38532941 L104.592299,31.2610765 Z M111.220742,8.22467647 C112.569899,8.22467647 113.379074,8.91577059 113.379074,10.8354706 L113.379074,24.8108824 C113.379074,26.7305824 112.569899,27.4216765 111.220742,27.4216765 L108.831444,27.4216765 L108.831444,8.22467647 L111.220742,8.22467647 Z" id="D" fill="#60BA46"></path>
                        </g>
                    </g>
                </g>
            </g>
        </g>
    </g>
</svg>