
<svg width="40px" height="32px" viewBox="0 0 40 32" version="1.1" xmlns="http://www.w3.org/2000/svg" xmlns:xlink="http://www.w3.org/1999/xlink">
    <g id="Desktop" stroke="none" stroke-width="1" fill="none" fill-rule="evenodd">
        <g id="Home" transform="translate(-736.000000, -3042.000000)" fill="#2ED573" fill-rule="nonzero">
            <g id="quotes" transform="translate(0.000000, 2924.000000)">
                <g id="ben-lorica">
                    <g id="quote" transform="translate(736.000000, 118.000000)">
                        <path d="M31.2380952,32 C27.9364914,32 25.4391619,30.6455162 23.7460317,27.9365079 C22.3068711,25.6507822 21.5873016,22.8571594 21.5873016,19.5555556 C21.5873016,15.3227302 22.6666559,11.5132444 24.8253968,8.12698413 C26.9841378,4.74072381 30.2645283,2.03175619 34.6666667,0 L35.8095238,2.28571429 C33.1851721,3.38624889 30.9206444,5.12168127 29.015873,7.49206349 C27.1111016,9.86244571 26.1587302,12.27512 26.1587302,14.7301587 C26.1587302,15.7460368 26.285713,16.6349168 26.5396825,17.3968254 C27.8941867,16.2962908 29.4603086,15.7460317 31.2380952,15.7460317 C33.523821,15.7460317 35.4497276,16.4867651 37.015873,17.968254 C38.5820184,19.4497429 39.3650794,21.4179771 39.3650794,23.8730159 C39.3650794,26.1587416 38.5820184,28.0846483 37.015873,29.6507937 C35.4497276,31.216939 33.523821,32 31.2380952,32 Z M9.65079365,32 C6.34918984,32 3.85186032,30.6455162 2.15873016,27.9365079 C0.719569524,25.6507822 -3.55271368e-15,22.8571594 -3.55271368e-15,19.5555556 C-3.55271368e-15,15.3227302 1.07935429,11.5132444 3.23809524,8.12698413 C5.39683619,4.74072381 8.67722667,2.03175619 13.0793651,0 L14.2222222,2.28571429 C11.5978705,3.38624889 9.33334286,5.12168127 7.42857143,7.49206349 C5.5238,9.86244571 4.57142857,12.27512 4.57142857,14.7301587 C4.57142857,15.7460368 4.69841143,16.6349168 4.95238095,17.3968254 C6.30688508,16.2962908 7.87300698,15.7460317 9.65079365,15.7460317 C11.9365194,15.7460317 13.862426,16.4867651 15.4285714,17.968254 C16.9947168,19.4497429 17.7777778,21.4179771 17.7777778,23.8730159 C17.7777778,26.1587416 16.9947168,28.0846483 15.4285714,29.6507937 C13.862426,31.216939 11.9365194,32 9.65079365,32 Z" id="“"></path>
                    </g>
                </g>
            </g>
        </g>
    </g>
</svg>