<?xml version="1.0" encoding="UTF-8"?>
<svg width="260px" height="22px" viewBox="0 0 260 22" version="1.1" xmlns="http://www.w3.org/2000/svg" xmlns:xlink="http://www.w3.org/1999/xlink">
    <!-- Generator: Sketch 52.6 (67491) - http://www.bohemiancoding.com/sketch -->
    <title>rising_tide</title>
    <desc>Created with Sketch.</desc>
    <g id="Desktop" stroke="none" stroke-width="1" fill="none" fill-rule="evenodd">
        <g id="Company" transform="translate(-644.000000, -2697.000000)" fill-rule="nonzero">
            <g id="advisors/investors" transform="translate(0.000000, 1916.000000)">
                <g id="content" transform="translate(240.000000, 120.000000)">
                    <g id="logo" transform="translate(372.000000, 592.000000)">
                        <g id="rising_tide" transform="translate(32.000000, 69.000000)">
                            <path d="M37.2666667,0.289473684 L37.2666667,1.36631579 L39.5777778,1.36631579 C39.9143665,1.36554488 40.237391,1.49918368 40.4753958,1.73767025 C40.7134005,1.97615682 40.8467693,2.2998352 40.846,2.63710526 L40.846,18.9315789 C40.8467673,19.2691145 40.7134903,19.593089 40.4755692,19.8320347 C40.2376482,20.0709804 39.9146324,20.205264 39.5777778,20.2052632 L37.2666667,20.2052632 L37.2666667,21.3805263 L46.9733333,21.3805263 L46.9733333,20.2921053 L44.8904444,20.2921053 C44.5535899,20.2921061 44.230574,20.1578225 43.992653,19.9188768 C43.754732,19.6799311 43.6214549,19.3559566 43.6222222,19.0184211 L43.6222222,2.15078947 C44.6929961,1.74504642 45.8285557,1.53807391 46.9733333,1.54 C48.8857778,1.54 51.5406667,2.585 51.5406667,5.30315789 C51.5406667,8.02131579 49.582,10.0128947 47.1033333,10.0128947 L44.954,10.0128947 C44.8511393,10.0137105 44.757568,10.0726926 44.7123014,10.165248 C44.6670348,10.2578033 44.6778441,10.3680423 44.7402222,10.45 L53.196,21.395 L57.33,21.395 L57.33,20.3442105 C56.5573232,20.3442901 55.8283831,19.984964 55.3568889,19.3715789 L48.646,10.6063158 C48.646,10.6063158 54.4786667,10.3168421 54.4786667,4.76184211 C54.4786667,-0.793157895 47.5626667,0.289473684 45.5866667,0.289473684 L37.2666667,0.289473684 Z" id="Path" fill="#003761"></path>
                            <path d="M63.6566667,0.193947368 L73.5366667,0.193947368 L73.5366667,1.46763158 L71.2255556,1.46763158 C70.564556,1.46922758 70.0295536,2.0066078 70.0295556,2.66894737 L70.0295556,18.9778947 C70.0295536,19.6402343 70.564556,20.1776145 71.2255556,20.1792105 L73.5366667,20.1792105 L73.5366667,21.3805263 L63.6566667,21.3805263 L63.6566667,20.2921053 L66.0342222,20.2921053 C66.6913939,20.2937266 67.2267636,19.7637364 67.2331111,19.1052632 L67.2331111,2.64289474 C67.2323459,2.32505343 67.1056046,2.02053478 66.8807691,1.79632991 C66.6559336,1.57212503 66.3514214,1.44659976 66.0342222,1.44736842 L63.6566667,1.44736842 L63.6566667,0.193947368 Z" id="Path" fill="#003761"></path>
                            <path d="M102.021111,0.193947368 L111.901111,0.193947368 L111.901111,1.46763158 L109.59,1.46763158 C108.929,1.46922758 108.393998,2.0066078 108.394,2.66894737 L108.394,18.9778947 C108.393998,19.6402343 108.929,20.1776145 109.59,20.1792105 L111.901111,20.1792105 L111.901111,21.3805263 L102.021111,21.3805263 L102.021111,20.2921053 L104.398667,20.2921053 C105.055838,20.2937266 105.591208,19.7637364 105.597556,19.1052632 L105.597556,2.64289474 C105.59679,2.32505343 105.470049,2.02053478 105.245214,1.79632991 C105.020378,1.57212503 104.715866,1.44659976 104.398667,1.44736842 L102.021111,1.44736842 L102.021111,0.193947368 Z" id="Path" fill="#003761"></path>
                            <path d="M199.428667,0.193947368 L209.308667,0.193947368 L209.308667,1.46763158 L206.997556,1.46763158 C206.335428,1.46763158 205.798667,2.00547898 205.798667,2.66894737 L205.798667,18.9778947 C205.798667,19.6413631 206.335428,20.1792105 206.997556,20.1792105 L209.308667,20.1792105 L209.308667,21.3805263 L199.428667,21.3805263 L199.428667,20.2921053 L201.806222,20.2921053 C202.463394,20.2937266 202.998764,19.7637364 203.005111,19.1052632 L203.005111,2.64289474 C203.004346,2.32505343 202.877605,2.02053478 202.652769,1.79632991 C202.427934,1.57212503 202.123421,1.44659976 201.806222,1.44736842 L199.428667,1.44736842 L199.428667,0.193947368 Z" id="Path" fill="#838486"></path>
                            <path d="M93.7444444,1.47631579 L93.7444444,5.5 L92.9153333,5.5 C92.6914927,5.50000564 92.5095875,5.31902494 92.508,5.09473684 C92.4877778,4.015 92.0631111,1.13763158 88.0677778,1.13763158 C83.1566667,1.13763158 83.2982222,4.81684211 83.2982222,5.5 C83.2982222,7.35842105 84.3584444,9.405 88.5213333,9.405 C94.2355556,9.405 94.8046667,12.5139474 94.8046667,14.4476316 C94.8046667,17.1426316 93.0713333,21.7134211 86.6291111,21.7134211 C82.3911111,21.7134211 80.6866667,20.4397368 80.6866667,20.4397368 L80.6866667,16.0021053 L81.2817778,16.0021053 C81.4923709,15.9996874 81.6695686,16.159614 81.6891111,16.3697368 C81.7902222,17.4321053 82.4691111,20.4223684 86.8891111,20.4223684 C90.974,20.4223684 92.0717778,17.7678947 92.0717778,15.3797368 C92.0717778,12.9915789 90.3702222,11.9668421 87.2675556,11.9668421 C83.512,11.9668421 80.6722222,10.1084211 80.6722222,6.24105263 C80.6722222,2.37368421 83.6015556,0 88.3306667,0 C92.0024444,0 93.7444444,1.47631579 93.7444444,1.47631579 Z" id="Path" fill="#003761"></path>
                            <path d="M118.331778,0.193945937 L118.331778,1.47921053 L120.735333,1.47921053 C121.197374,1.47919959 121.572824,1.85282476 121.576,2.31578947 L121.576,19.3947368 C121.583037,19.6226258 121.497584,19.8436401 121.339159,20.0072953 C121.180734,20.1709504 120.962871,20.263267 120.735333,20.2631579 L118.331778,20.2631579 L118.331778,21.3863158 L126.146222,21.3863158 L126.146222,20.2631579 L123.881333,20.2631579 C123.657873,20.2631592 123.443607,20.1740127 123.285869,20.0154113 C123.12813,19.85681 123.039899,19.6418059 123.040667,19.4178947 L123.040667,3.81526316 L137.710444,21.3805263 L139.767333,21.3805263 L139.767333,2.27526316 C139.775215,1.81569798 140.149296,1.44730057 140.608,1.44736842 L142.598444,1.44736842 L142.598444,0.382105263 L135.058444,0.382105263 L135.058444,1.52552632 L137.323333,1.52552632 C137.789216,1.52552632 138.166889,1.90396352 138.166889,2.37078947 L138.166889,17.4639474 L124.421556,0.544210526 C124.241254,0.322145854 123.970585,0.193450872 123.684889,0.193947368 L118.331778,0.193945937 Z" id="Path" fill="#003761"></path>
                            <path d="M167.431333,1.39815789 L167.431333,5.83289474 L166.460667,5.83289474 C165.906,5.45947368 167.327333,1.20131579 159.761333,1.20131579 C151.458667,1.20131579 150.571778,7.56973684 150.571778,10.0302632 C150.571778,13.7934211 152.342667,20.3760526 159.507111,20.3760526 C163.765333,20.3760526 164.438444,19.2789474 164.438444,19.2789474 L164.438444,14.7139474 C164.438444,14.3110702 164.112508,13.9844737 163.710444,13.9844737 L161.067111,13.9844737 L161.067111,13.0986842 L168.578222,13.0986842 L168.578222,13.8571053 C167.833129,13.8571053 167.229111,14.4623456 167.229111,15.2089474 L167.229111,20.1502632 C164.808581,21.1862605 162.202753,21.7171487 159.570667,21.7105263 C155.165111,21.7105263 147.243778,19.7276316 147.243778,10.8523684 C147.243778,2.02631579 155.711111,0 158.917778,0 C164.088889,0 167.431333,1.39815789 167.431333,1.39815789 Z" id="Path" fill="#003761"></path>
                            <path d="M175.355556,0.193947368 L193.006667,0.193947368 L193.006667,5.5 L192.498222,5.5 C192.365573,5.50529028 192.2464,5.41931183 192.209333,5.29157895 L191.342667,2.23473684 C191.27689,2.00491534 191.067047,1.84662422 190.828444,1.84684211 L185.772889,1.84684211 L185.772889,19.1573684 C185.772887,19.7365748 186.240633,20.2065623 186.818667,20.2081579 L189.202,20.2081579 L189.202,21.3660526 L179.047556,21.3660526 L179.047556,20.3152632 L181.508889,20.3152632 C182.088051,20.3152632 182.557556,19.8448087 182.557556,19.2644737 L182.557556,1.84394737 L177.478889,1.84394737 C177.239805,1.84507058 177.03022,2.00434705 176.964667,2.23473684 L176.132667,5.17868421 C176.096697,5.30756876 175.977246,5.39494479 175.843778,5.39 L175.355556,5.39 L175.355556,0.193947368 Z" id="Path" fill="#838486"></path>
                            <path d="M226.679556,0.193947368 L216.022444,0.193947368 L216.022444,1.46184211 L217.703778,1.46184211 C217.963977,1.45874722 218.214584,1.56015769 218.399668,1.74344088 C218.584752,1.92672407 218.688907,2.17662402 218.688889,2.43736842 L218.688889,19.1052632 C218.689149,19.417288 218.52712,19.7068977 218.261333,19.8694737 L217.105778,20.5728947 C217.030825,20.6195978 216.985019,20.7015606 216.984444,20.79 L216.984444,21.3689474 L227.095556,21.3689474 C233.205556,21.3689474 237.905778,17.0615789 237.905778,9.58447368 C237.905778,2.10736842 231.4,0.193947368 226.679556,0.193947368 Z M227.601111,19.7334211 L221.600889,19.7334211 L221.600889,1.78605263 L226.965556,1.78605263 C229.216,1.78605263 234.641333,3.135 234.641333,10.2647368 C234.641333,17.3944737 229.793778,19.7334211 227.601111,19.7334211 Z" id="Shape" fill="#838486"></path>
                            <path d="M243.822222,0.193947368 L260,0.193947368 L260,5.29447368 L259.488667,5.29447368 C259.330899,5.29417144 259.195923,5.18085469 259.168,5.02526316 L258.908,3.63 C258.798697,3.03705057 258.425329,2.52649364 257.894,2.24342105 C257.317436,1.93361021 256.673345,1.77151568 256.019111,1.77157895 L249.868667,1.77157895 L249.868667,9.84210526 L255.268,9.84210526 C256.065745,9.84210526 256.712444,9.19409635 256.712444,8.39473684 L256.712444,7.18184211 L257.801556,7.18184211 L257.801556,14.1842105 L256.787556,14.1842105 L256.787556,12.7744737 C256.787556,11.9751142 256.140856,11.3271053 255.343111,11.3271053 L249.834,11.3271053 L249.834,19.7334211 L257.111111,19.7334211 C257.931219,19.73269 258.645711,19.1730651 258.844444,18.3757895 L259.407778,16.1121053 L260,16.1121053 L260,21.3805263 L243.822222,21.3805263 L243.822222,20.3586842 L245.148222,20.3586842 C245.936394,20.3586842 246.575333,19.7184514 246.575333,18.9286842 L246.575333,2.73263158 C246.575333,1.94286439 245.936394,1.30263158 245.148222,1.30263158 L243.822222,1.30263158 L243.822222,0.193947368 Z" id="Path" fill="#838486"></path>
                            <path d="M0.696222222,1.96552632 C0.696222222,1.96552632 16.9722222,2.60526316 27.4444444,21.3805263 L23.1602222,21.3805263 C23.1602222,21.3805263 18.8066667,6.39157895 0.696222222,1.96552632 Z" id="Path" fill="#838486"></path>
                            <path d="M32.2573333,5.13815789 C32.2573333,10.0592105 9.48133333,18.48 0,20.9868421 C0,20.9868421 22.1577778,10.6005263 22.1577778,4.55631579 C22.1577778,0.778684211 14.2913333,0.193947368 11.3446667,0.193947368 C11.3446667,0.193947368 32.2573333,4.99600361e-16 32.2573333,5.13815789 Z" id="Path" fill="#003761"></path>
                        </g>
                    </g>
                </g>
            </g>
        </g>
    </g>
</svg>