<?xml version="1.0" encoding="utf-8"?>
<!-- Generator: Adobe Illustrator 21.1.0, SVG Export Plug-In . SVG Version: 6.00 Build 0)  -->
<svg version="1.1" id="Layer_1" xmlns="http://www.w3.org/2000/svg" xmlns:xlink="http://www.w3.org/1999/xlink" x="0px" y="0px"
	 viewBox="0 0 279.3 160" style="enable-background:new 0 0 279.3 160;" xml:space="preserve">
<style type="text/css">
	.st0{fill:#F89939;}
	.st1{fill:#3499CD;}
	.st2{fill:#010101;}
	.st3{fill:#FFFFFF;}
</style>
<g>
	<path class="st0" d="M212.7,127.1C246.6,93.2,252.2,44,225.3,17C198.4-9.9,149.1-4.3,115.2,29.6s-24.1,98.6-12.6,110.1
		C111.9,149,178.8,161,212.7,127.1z"/>
	<path class="st1" d="M73.7,78.2c-19.6-19.7-48.2-23-63.8-7.3c-15.6,15.6-12.4,44.2,7.3,63.9s57.2,14,63.9,7.3
		C86.4,136.6,93.4,97.8,73.7,78.2L73.7,78.2z"/>
	<path class="st2" d="M138.2,72.6c-0.2,0-0.4,0.1-0.7,0.2l-9.7,3.6c-3.3,6.3-6.1,13.2-8.5,20.8c-2.3,7.5-3.5,13.9-3.5,19.3
		c0,3.6,0.8,6.4,2.5,8.5s3.9,3.2,6.6,3.2c2.4,0,4.9-0.8,7.5-2.3c2.6-1.5,5.7-3.9,9.1-7.1l0,0c0.4,2.4,1.4,4.4,3,6.1
		c2.1,2.2,4.9,3.3,8.4,3.3c3.1,0,6-0.8,8.5-2.3s5.3-3.7,8.4-6.7c0.3,2.2,1,4.2,2.2,5.9c1.6,2.1,3.5,3.2,5.7,3.2
		c2.3,0,4.5-0.9,6.7-2.6s4.5-4.4,7.1-8.1c-0.2,7.1,1.7,10.7,5.7,10.7c1.6,0,3.3-0.6,5.1-1.8c1.8-1.2,4.7-3.7,8.8-7.6l0,0
		c3.5-3.5,6.2-6.8,7.8-9.9c2.2-0.4,4.3-1.1,6.2-2c-3.9,6.1-5.8,10.9-5.8,14.5c0,1.9,0.5,3.6,1.6,4.9s2.4,2,3.9,2
		c3.4,0,8.2-3,14.5-9.1c0,0.5,0,0.9,0,1.4c0,1.7,0.1,4.2,0.4,7.7l8.5-2c0-2.3,0-4.1,0.1-5.5c0.1-1.8,0.4-3.8,0.8-6
		c0.2-1.3,0.8-2.5,1.8-3.6l2.1-2.5c0.7-0.8,1.5-1.7,2.2-2.5c0.7-0.7,1.4-1.5,2.1-2.1c0.7-0.6,1.3-1.1,1.9-1.5s1.1-0.5,1.4-0.5
		c0.6,0,1,0.4,1,1.2c0,0.8-0.6,2.7-1.8,5.7c-2.2,5.6-3.4,9.8-3.4,12.5c0,2,0.5,3.6,1.6,4.8c1,1.2,2.4,1.8,4.1,1.8
		c4.2,0,9.3-3.1,15.2-9.3v-4.4c-4.2,4.9-7.2,7.4-9.1,7.4c-1.3,0-1.9-0.8-1.9-2.3c0-1.2,0.8-3.7,2.3-7.5c2.2-5.6,3.3-9.7,3.3-12.1
		c0-1.5-0.4-2.7-1.3-3.7s-2-1.5-3.2-1.5c-1.9,0-4.1,0.9-6.6,2.7c-2.5,1.8-5.8,5-10,9.7c0.6-3,1.9-7.2,3.9-12.5l-9.3,1.8
		c-2.1,4.6-3.7,8.7-4.6,12.4c-0.5,1.8-0.8,3.7-1.1,5.6c-2.9,2.8-4.8,4.6-5.7,5.2c-0.8,0.6-1.7,0.9-2.6,0.9c-0.8,0-1.5-0.3-2-1
		c-0.5-0.6-0.7-1.5-0.7-2.6s0.2-2.5,0.7-4c0.4-1.5,1.4-4.3,2.9-8.4l3.6-9.8l-3.5,0.2c-3.2,6-6.9,9.3-11.1,9.7c1.2-3,1.7-5.3,1.7-6.9
		c0-2-1-3.1-3-3.1c-2.4,0-4.2,1.1-5.5,3.3c-1.3,2.2-2,4.3-2,6.3c0,1.9,1.1,3.4,3.3,4.3c-1.4,2-2.9,3.9-4.5,5.7l0,0
		c-2.2,2.2-3.9,3.8-5.1,4.8c-1.2,1.1-2.3,1.6-3.3,1.6c-1.6,0-2.3-1.1-2.3-3.3c0-2.1,0.9-6,2.6-11.6l3.4-11.2h-2.1l-7.8,4.3
		c-1.3-2.9-3.5-4.4-6.7-4.4c-2.5,0-5.4,1.1-8.7,3.2s-6,5-8.1,8.4c-1.6,2.7-2.6,5.5-3,8.4c-2.9,2.9-5.2,4.9-6.6,5.7
		c-1.5,0.9-3.1,1.4-4.8,1.4c-4.3,0-7-2.5-8-7.5c11.2-3.3,16.9-7.6,16.9-12.9c0-2-0.7-3.6-2.1-4.8c-1.4-1.2-3.3-1.8-5.7-1.8
		c-4.6,0-8.7,2.2-12.5,6.6c-3.4,4-5.2,8.4-5.6,13.2c-3.1,3.1-5.4,5.1-7,6.1s-3,1.5-4.4,1.5s-2.4-0.6-3.3-2c-0.8-1.3-1.2-3.1-1.2-5.3
		c0-1,0.1-2.8,0.3-5.5c5.1-5.5,8.9-10.8,11.3-15.6c2.4-4.9,3.6-9.9,3.6-15.1c0-1.8-0.2-3.3-0.7-4.4
		C139.5,73.1,138.9,72.6,138.2,72.6L138.2,72.6z M136.3,77c0.4,0,0.8,0.3,1.1,0.9s0.4,1.3,0.4,2.3c0,3.2-1,7.1-3,11.5
		s-4.6,8.5-7.9,12.1c1.7-8.5,3.5-15.1,5.3-19.8C134,79.4,135.3,77,136.3,77L136.3,77z M190.1,97.8c1.1,0,1.9,0.4,2.6,1.2
		c0.6,0.8,1,1.9,1,3.3c0,3.7-1.1,7.7-3.4,12c-2.3,4.4-4.7,6.5-7.2,6.5c-1,0-1.9-0.4-2.6-1.3c-0.7-0.9-1-2-1-3.4
		c0-3.6,1.1-7.6,3.4-12C185.2,99.9,187.6,97.8,190.1,97.8L190.1,97.8z M157.2,97.8c1.8,0,2.7,1.2,2.7,3.7c0,5-3.3,8.3-9.8,10.2
		c0-4.1,0.8-7.4,2.3-10S155.6,97.8,157.2,97.8z"/>
	<g>
		<path class="st3" d="M156,78.2c0.1,0.7,0.2,1.2,0.5,1.6c0.5,0.7,1.4,1,2.7,1c0.8,0,1.4-0.2,2-0.5s0.9-0.8,0.9-1.5
			c0-0.5-0.2-0.9-0.7-1.2c-0.3-0.2-0.9-0.4-1.7-0.6l-1.6-0.4c-1-0.3-1.8-0.5-2.3-0.9c-0.9-0.5-1.3-1.3-1.3-2.3
			c0-1.1,0.4-2.1,1.2-2.8c0.8-0.7,1.9-1.1,3.3-1.1c1.8,0,3.1,0.5,3.9,1.6c0.5,0.7,0.7,1.4,0.7,2.2h-1.9c0-0.5-0.2-0.9-0.5-1.2
			c-0.5-0.5-1.3-0.8-2.4-0.8c-0.8,0-1.3,0.1-1.7,0.4s-0.6,0.7-0.6,1.2s0.3,0.9,0.8,1.3c0.3,0.2,0.7,0.4,1.3,0.5l1.3,0.3
			c1.5,0.4,2.4,0.7,2.9,1c0.8,0.5,1.2,1.3,1.2,2.4s-0.4,2-1.2,2.8s-2.1,1.2-3.7,1.2c-1.8,0-3.1-0.4-3.8-1.2c-0.7-0.8-1.1-1.8-1.2-3
			H156L156,78.2z M171.1,69.5c1.4,0,2.5,0.3,3.3,1c0.9,0.7,1.4,1.8,1.5,3.4h-2c-0.1-0.7-0.4-1.4-0.8-1.8c-0.4-0.5-1.1-0.7-2.1-0.7
			c-1.3,0-2.2,0.6-2.8,1.9c-0.4,0.8-0.5,1.8-0.5,3s0.3,2.2,0.8,3.1c0.5,0.8,1.3,1.2,2.4,1.2c0.8,0,1.5-0.3,2-0.8s0.8-1.2,1-2.1h2
			c-0.2,1.6-0.8,2.8-1.7,3.5s-2.1,1.1-3.5,1.1c-1.6,0-2.8-0.6-3.8-1.7c-0.9-1.2-1.4-2.6-1.4-4.3c0-2.1,0.5-3.8,1.5-4.9
			C168.2,70.1,169.5,69.5,171.1,69.5L171.1,69.5z M177.9,69.9h2.1v12h-2.1V69.9z M177.9,65.4h2.1v2.3h-2.1V65.4z M183,65.4h1.9V75
			l5.2-5.1h2.6l-4.6,4.5L193,82h-2.6l-3.8-6.1l-1.7,1.6V82H183V65.4L183,65.4z M194.6,69.9h2.1v12h-2.1V69.9z M194.6,65.4h2.1v2.3
			h-2.1V65.4z M200.2,66.5h2.1v3.4h1.9v1.7h-1.9v7.9c0,0.4,0.1,0.7,0.4,0.8c0.2,0.1,0.4,0.1,0.8,0.1h0.3c0.1,0,0.2,0,0.4,0V82
			c-0.2,0.1-0.5,0.1-0.7,0.1s-0.5,0-0.8,0c-0.9,0-1.6-0.2-1.9-0.7c-0.3-0.5-0.5-1.1-0.5-1.9v-8h-1.6v-1.7h1.6L200.2,66.5L200.2,66.5
			z"/>
	</g>
</g>
</svg>
