
<svg width="60px" height="60px" viewBox="0 0 60 60" version="1.1" xmlns="http://www.w3.org/2000/svg" xmlns:xlink="http://www.w3.org/1999/xlink">
    <g id="Desktop" stroke="none" stroke-width="1" fill="none" fill-rule="evenodd">
        <g id="Platform/Governance" transform="translate(-1252.000000, -2418.000000)">
            <g id="ROI" transform="translate(0.000000, 2298.000000)">
                <g id="content" transform="translate(424.000000, 120.000000)">
                    <g id="roi" transform="translate(644.000000, 0.000000)">
                        <g id="icon" transform="translate(184.000000, 0.000000)">
                            <circle id="Oval-Copy" fill="#FFFFFF" cx="30" cy="30" r="30"></circle>
                            <g id="Icon/Light/Governance" transform="translate(16.000000, 16.000000)">
                                <g id="Group-7" transform="translate(1.166667, 1.166667)">
                                    <path d="M19.4927833,2.94991667 C16.74995,2.94991667 12.5837833,4.83175 8.70811667,8.70858333 C3.36128333,14.0565833 1.80845,19.9564167 3.75911667,21.90825 C4.73911667,22.8870833 6.63495,23.0025833 8.96478333,22.2255833 C11.6002833,21.34825 14.43995,19.4769167 16.9576167,16.9580833 C22.3056167,11.6100833 23.85845,5.70908333 21.9077833,3.75841667 C21.3711167,3.22175 20.5346167,2.94991667 19.4927833,2.94991667 M6.17761667,25.0734167 C4.50695,25.0734167 3.11395,24.5635833 2.10945,23.5579167 C-1.12805,20.31925 1.04545,13.0719167 7.05845,7.05775 C13.0737833,1.04475 20.31995,-1.12758333 23.55745,2.10875 C26.7961167,5.34741667 24.62145,12.59475 18.6072833,18.60775 C15.8376167,21.3774167 12.67595,23.44825 9.70211667,24.4399167 C8.43395,24.86225 7.24861667,25.0734167 6.17761667,25.0734167" id="Fill-1" fill="#2FD573"></path>
                                    <path d="M8.708,16.95785 C14.0548333,22.3046833 19.957,23.8586833 21.9076667,21.9080167 C23.8583333,19.9561833 22.3055,14.05635 16.9575,8.70835 C14.4386667,6.19068333 11.6001667,4.31935 8.96466667,3.43968333 C6.63483333,2.66501667 4.739,2.77935 3.759,3.75935 C1.80833333,5.70885 3.36116667,11.60985 8.708,16.95785 M19.4926667,25.0556833 C15.897,25.0556833 11.1871667,22.73635 7.05833333,18.6075167 C1.04533333,12.59335 -1.12933333,5.34718333 2.10933333,2.10851667 C3.759,0.456516667 6.45516667,0.145016667 9.70316667,1.22651667 C12.6746667,2.21701667 15.8375,4.28901667 18.6071667,7.05868333 C24.6213333,13.0716833 26.796,20.3190167 23.5585,23.5576833 C22.5423333,24.5715167 21.1341667,25.0556833 19.4926667,25.0556833" id="Fill-3" fill="#2FD573"></path>
                                    <path d="M15.1667833,12.8164167 C15.1667833,14.1044167 14.12145,15.14975 12.83345,15.14975 C11.54545,15.14975 10.5001167,14.1044167 10.5001167,12.8164167 C10.5001167,11.5284167 11.54545,10.4830833 12.83345,10.4830833 C14.12145,10.4830833 15.1667833,11.5284167 15.1667833,12.8164167" id="Fill-5" fill="#1B202A"></path>
                                </g>
                            </g>
                        </g>
                    </g>
                </g>
            </g>
        </g>
    </g>
</svg>