<?xml version="1.0" encoding="UTF-8"?>
<svg width="24px" height="24px" viewBox="0 0 24 24" version="1.1" xmlns="http://www.w3.org/2000/svg" xmlns:xlink="http://www.w3.org/1999/xlink">
    <!-- Generator: Sketch 52.6 (67491) - http://www.bohemiancoding.com/sketch -->
    <title>Icon/Dark/Flow</title>
    <desc>Created with Sketch.</desc>
    <g id="Icon/Dark/Flow" stroke="none" stroke-width="1" fill="none" fill-rule="evenodd">
        <path d="M9.41958261,13.2826957 L7.8021913,14.900087 L3.09297391,10.1898261 L4.70932174,8.57243478 L9.41958261,13.2826957 Z M-1.44328993e-13,13.2826957 L1.6173913,11.6653043 L6.3266087,16.3755652 L4.71026087,17.9929565 L-1.44328993e-13,13.2826957 Z" id="Combined-Shape" fill="#3867D6"></path>
        <path d="M0.680869565,10.7292 L2.15634783,9.25372174 L3.09234783,10.1897217 L1.61686957,11.6652 L0.680869565,10.7292 Z M8.85203478,4.82686957 C10.4162087,3.26373913 12.9612522,3.26165217 14.5264696,4.82686957 L18.1890783,8.48947826 C17.8770783,8.64391304 17.5807304,8.83695652 17.3209043,9.09678261 C17.0610783,9.35556522 16.8690783,9.65295652 16.7136,9.96495652 L13.0509913,6.30234783 C12.299687,5.55208696 11.0798609,5.55208696 10.327513,6.30234783 C9.5762087,7.05469565 9.5762087,8.27556522 10.327513,9.02686957 L15.491687,14.19 C17.0558609,15.7552174 17.0558609,18.3002609 15.491687,19.8654783 C14.7090783,20.648087 13.6822957,21.0393913 12.6544696,21.0393913 C11.6266435,21.0393913 10.5998609,20.648087 9.81725217,19.8654783 L6.32681739,16.3750435 L7.80229565,14.8995652 L11.2927304,18.39 C12.0440348,19.1381739 13.2638609,19.1402609 14.0162087,18.39 C14.767513,17.6376522 14.767513,16.4167826 14.0162087,15.6654783 L8.85203478,10.5023478 C7.28786087,8.93713043 7.28786087,6.39208696 8.85203478,4.82686957 Z M22.5965217,12.8965043 L23.6629565,13.9629391 L22.1874783,15.4394609 L21.1210435,14.3719826 C21.4330435,14.2175478 21.7304348,14.0245043 21.9892174,13.7646783 C22.2490435,13.5048522 22.442087,13.2074609 22.5965217,12.8965043 Z" id="Combined-Shape" fill="#FFFFFF"></path>
        <polygon id="Fill-9" fill="#4B7BEC" points="3.09245217 10.1899304 1.61697391 11.6654087 6.32723478 16.3756696 7.80271304 14.9001913"></polygon>
        <path d="M21.9892174,9.09657391 C20.9603478,8.06666087 19.4243478,7.87361739 18.1888696,8.48926957 C17.877913,8.64370435 17.5805217,8.83674783 17.3206957,9.09657391 C17.0608696,9.35535652 16.8688696,9.65274783 16.7133913,9.96474783 C16.0977391,11.2002261 16.2907826,12.7351826 17.3206957,13.7650957 C18.3516522,14.7950087 19.8855652,14.9880522 21.1210435,14.3724 C21.4330435,14.2169217 21.7304348,14.0249217 21.9892174,13.7650957 C22.2490435,13.5052696 22.442087,13.2068348 22.5965217,12.8969217 C23.2121739,11.6614435 23.0191304,10.1254435 21.9892174,9.09657391" id="Fill-11" fill="#2ED573"></path>
    </g>
</svg>