<?xml version="1.0" encoding="UTF-8"?>
<svg width="24px" height="24px" viewBox="0 0 24 24" version="1.1" xmlns="http://www.w3.org/2000/svg" xmlns:xlink="http://www.w3.org/1999/xlink">
    <!-- Generator: Sketch 52.6 (67491) - http://www.bohemiancoding.com/sketch -->
    <title>Icon/Dark/Governance</title>
    <desc>Created with Sketch.</desc>
    <g id="Icon/Dark/Governance" stroke="none" stroke-width="1" fill="none" fill-rule="evenodd">
        <g id="Group-7" transform="translate(1.000000, 1.000000)">
            <path d="M16.7081,2.5285 C14.3571,2.5285 10.7861,4.1415 7.4641,7.4645 C2.8811,12.0485 1.5501,17.1055 3.2221,18.7785 C4.0621,19.6175 5.6871,19.7165 7.6841,19.0505 C9.9431,18.2985 12.3771,16.6945 14.5351,14.5355 C19.1191,9.9515 20.4501,4.8935 18.7781,3.2215 C18.3181,2.7615 17.6011,2.5285 16.7081,2.5285 M5.2951,21.4915 C3.8631,21.4915 2.6691,21.0545 1.8081,20.1925 C-0.9669,17.4165 0.8961,11.2045 6.0501,6.0495 C11.2061,0.8955 17.4171,-0.9665 20.1921,1.8075 C22.9681,4.5835 21.1041,10.7955 15.9491,15.9495 C13.5751,18.3235 10.8651,20.0985 8.3161,20.9485 C7.2291,21.3105 6.2131,21.4915 5.2951,21.4915" id="Fill-1" fill="#2FD573"></path>
            <path d="M7.464,14.5353 C12.047,19.1183 17.106,20.4503 18.778,18.7783 C20.45,17.1053 19.119,12.0483 14.535,7.4643 C12.376,5.3063 9.943,3.7023 7.684,2.9483 C5.687,2.2843 4.062,2.3823 3.222,3.2223 C1.55,4.8933 2.881,9.9513 7.464,14.5353 M16.708,21.4763 C13.626,21.4763 9.589,19.4883 6.05,15.9493 C0.896,10.7943 -0.968,4.5833 1.808,1.8073 C3.222,0.3913 5.533,0.1243 8.317,1.0513 C10.864,1.9003 13.575,3.6763 15.949,6.0503 C21.104,11.2043 22.968,17.4163 20.193,20.1923 C19.322,21.0613 18.115,21.4763 16.708,21.4763" id="Fill-3" fill="#2FD573"></path>
            <path d="M13.0001,10.9855 C13.0001,12.0895 12.1041,12.9855 11.0001,12.9855 C9.8961,12.9855 9.0001,12.0895 9.0001,10.9855 C9.0001,9.8815 9.8961,8.9855 11.0001,8.9855 C12.1041,8.9855 13.0001,9.8815 13.0001,10.9855" id="Fill-5" fill="#FFFFFF"></path>
        </g>
    </g>
</svg>