<?xml version="1.0" encoding="UTF-8"?>
<svg width="24px" height="24px" viewBox="0 0 24 24" version="1.1" xmlns="http://www.w3.org/2000/svg" xmlns:xlink="http://www.w3.org/1999/xlink">
    <!-- Generator: Sketch 52.6 (67491) - http://www.bohemiancoding.com/sketch -->
    <title>Icon/Dark/Management</title>
    <desc>Created with Sketch.</desc>
    <g id="Icon/Dark/Management" stroke="none" stroke-width="1" fill="none" fill-rule="evenodd">
        <path d="M11.9998,0.0002 L22.3928,6.0002 L22.3928,18.0002 L11.9998,24.0002 L1.6068,18.0002 L1.6068,6.0002 L11.9998,0.0002 Z M11.9998,19.0002 C15.8658,19.0002 18.9998,15.8662 18.9998,12.0002 C18.9998,8.1342 15.8658,5.0002 11.9998,5.0002 C8.1338,5.0002 4.9998,8.1342 4.9998,12.0002 C4.9998,15.8662 8.1338,19.0002 11.9998,19.0002 Z" id="Combined-Shape" fill="#2FD573"></path>
        <path d="M11.9998,16.9855 C9.2428,16.9855 6.9998,14.7425 6.9998,11.9855 C6.9998,9.2285 9.2428,6.9855 11.9998,6.9855 C14.7568,6.9855 16.9998,9.2285 16.9998,11.9855 C16.9998,14.7425 14.7568,16.9855 11.9998,16.9855 Z M11.9998,8.9855 C10.3458,8.9855 8.9998,10.3315 8.9998,11.9855 C8.9998,13.6395 10.3458,14.9855 11.9998,14.9855 C13.6538,14.9855 14.9998,13.6395 14.9998,11.9855 C14.9998,10.3315 13.6538,8.9855 11.9998,8.9855 Z" id="Combined-Shape" fill="#FFFFFF"></path>
    </g>
</svg>