<?xml version="1.0" encoding="UTF-8"?>
<svg width="24px" height="24px" viewBox="0 0 24 24" version="1.1" xmlns="http://www.w3.org/2000/svg" xmlns:xlink="http://www.w3.org/1999/xlink">
    <!-- Generator: Sketch 52.6 (67491) - http://www.bohemiancoding.com/sketch -->
    <title>Icon/Dark/Model Catalog</title>
    <desc>Created with Sketch.</desc>
    <g id="Icon/Dark/Model-Catalog" stroke="none" stroke-width="1" fill="none" fill-rule="evenodd">
        <g id="Icon/Model-Catalog">
            <rect id="Bound" x="0" y="0" width="24" height="24"></rect>
            <g id="Icon" transform="translate(1.125000, 0.000000)">
                <path d="M14.7951452,12 C14.7951452,14.209 13.0041452,16 10.7951452,16 C8.5861452,16 6.7951452,14.209 6.7951452,12 C6.7951452,9.791 8.5861452,8 10.7951452,8 C13.0041452,8 14.7951452,9.791 14.7951452,12" id="Fill-1" fill="#2ED573"></path>
                <path d="M10.7952452,10.845291 L3.5012562,6.63398095 C3.02296708,6.3578325 2.41137459,6.52169988 2.13522614,6.999989 C1.85907769,7.47827812 2.02294508,8.0898706 2.5012342,8.36601905 L10.2952342,12.8660191 C10.6046409,13.0446603 10.9858495,13.0446603 11.2952562,12.8660191 L19.0892562,8.36601905 C19.5675453,8.0898706 19.7314127,7.47827812 19.4552642,6.999989 C19.1791158,6.52169988 18.5675233,6.3578325 18.0892342,6.63398095 L10.7952452,10.845291 Z" id="Stroke-3" fill="#FFFFFF" fill-rule="nonzero"></path>
                <path d="M9.7951452,12 L9.7951452,21 C9.7951452,21.5522847 10.2428604,22 10.7951452,22 C11.3474299,22 11.7951452,21.5522847 11.7951452,21 L11.7951452,12 C11.7951452,11.4477153 11.3474299,11 10.7951452,11 C10.2428604,11 9.7951452,11.4477153 9.7951452,12 Z" id="Stroke-5" fill="#FFFFFF" fill-rule="nonzero"></path>
                <path d="M10.2951342,2.13398095 C10.6045409,1.95533968 10.9857495,1.95533968 11.2951562,2.13398095 L19.0891562,6.63398095 C19.3985511,6.8126154 19.5891452,7.14273895 19.5891452,7.5 L19.5891452,16.5 C19.5891452,16.8572611 19.3985511,17.1873846 19.0891562,17.3660191 L11.2951562,21.8660191 C10.9857495,22.0446603 10.6045409,22.0446603 10.2951342,21.8660191 L2.5011342,17.3660191 C2.19173932,17.1873846 2.0011452,16.8572611 2.0011452,16.5 L2.0011452,7.5 C2.0011452,7.14273895 2.19173932,6.8126154 2.5011342,6.63398095 L10.2951342,2.13398095 Z M10.7951452,4.15470901 L4.0011452,8.0773418 L4.0011452,15.9226582 L10.7951452,19.845291 L17.5891452,15.9226582 L17.5891452,8.0773418 L10.7951452,4.15470901 Z" id="Stroke-7" fill="#FFFFFF" fill-rule="nonzero"></path>
                <path d="M13.7951452,3 C13.7951452,4.657 12.4521452,6 10.7951452,6 C9.1381452,6 7.7951452,4.657 7.7951452,3 C7.7951452,1.343 9.1381452,4.4408921e-16 10.7951452,4.4408921e-16 C12.4521452,4.4408921e-16 13.7951452,1.343 13.7951452,3" id="Fill-9" fill="#2ED573"></path>
                <path d="M4.5012452,4.9014 C5.9362452,5.7304 6.4282452,7.5654 5.5992452,9.0004 C4.7712452,10.4344 2.9362452,10.9264 1.5012452,10.0974 C0.0652451962,9.2694 -0.425754804,7.4344 0.402245196,6.0004 C1.2312452,4.5654 3.0652452,4.0734 4.5012452,4.9014" id="Fill-11" fill="#2ED573"></path>
                <path d="M1.5012452,13.9014 C2.9362452,13.0734 4.7712452,13.5654 5.5992452,15.0004 C6.4282452,16.4344 5.9362452,18.2694 4.5012452,19.0974 C3.0652452,19.9264 1.2312452,19.4344 0.402245196,18.0004 C-0.425754804,16.5654 0.0652451962,14.7304 1.5012452,13.9014" id="Fill-13" fill="#2ED573"></path>
                <path d="M7.7951452,21 C7.7951452,19.343 9.1381452,18 10.7951452,18 C12.4521452,18 13.7951452,19.343 13.7951452,21 C13.7951452,22.657 12.4521452,24 10.7951452,24 C9.1381452,24 7.7951452,22.657 7.7951452,21" id="Fill-15" fill="#2ED573"></path>
                <path d="M17.0891452,19.0977 C15.6541452,18.2697 15.1631452,16.4347 15.9911452,14.9997 C16.8191452,13.5657 18.6541452,13.0737 20.0891452,13.9017 C21.5251452,14.7307 22.0161452,16.5657 21.1881452,17.9997 C20.3591452,19.4347 18.5251452,19.9267 17.0891452,19.0977" id="Fill-18" fill="#2ED573"></path>
                <path d="M20.0891452,10.0977 C18.6541452,10.9267 16.8191452,10.4347 15.9911452,8.9997 C15.1631452,7.5657 15.6541452,5.7307 17.0891452,4.9017 C18.5251452,4.0737 20.3591452,4.5657 21.1881452,5.9997 C22.0161452,7.4347 21.5251452,9.2697 20.0891452,10.0977" id="Fill-20" fill="#2ED573"></path>
            </g>
        </g>
    </g>
</svg>