<?xml version="1.0" encoding="UTF-8"?>
<svg width="24px" height="24px" viewBox="0 0 24 24" version="1.1" xmlns="http://www.w3.org/2000/svg" xmlns:xlink="http://www.w3.org/1999/xlink">
    <!-- Generator: Sketch 52.6 (67491) - http://www.bohemiancoding.com/sketch -->
    <title>Icon/Dark/User-Feedback</title>
    <desc>Created with Sketch.</desc>
    <g id="Icon/Dark/User-Feedback" stroke="none" stroke-width="1" fill="none" fill-rule="evenodd">
        <path d="M17.2813,0 C13.5713,0 10.5633,3.008 10.5633,6.718 C10.5633,8.592 11.3323,10.285 12.5693,11.504 L10.6673,13.437 L17.2813,13.437 C20.9923,13.437 24.0003,10.429 24.0003,6.718 C24.0003,3.008 20.9923,0 17.2813,0" id="Fill-4" fill="#2FD573"></path>
        <path d="M6.667,17.333 C2.985,17.333 0,20.317 0,24 L13.334,24 C13.334,20.317 10.349,17.333 6.667,17.333 M10.667,12 C10.667,14.209 8.876,16 6.667,16 C4.458,16 2.667,14.209 2.667,12 C2.667,9.79 4.458,8 6.667,8 C8.876,8 10.667,9.79 10.667,12" id="Fill-1" fill="#FFFFFF"></path>
        <path d="M14.2813,5.7178 C14.8343,5.7178 15.2813,6.1658 15.2813,6.7178 C15.2813,7.2708 14.8343,7.7178 14.2813,7.7178 C13.7293,7.7178 13.2813,7.2708 13.2813,6.7178 C13.2813,6.1658 13.7293,5.7178 14.2813,5.7178 Z M17.2813,5.7178 C17.8343,5.7178 18.2813,6.1658 18.2813,6.7178 C18.2813,7.2708 17.8343,7.7178 17.2813,7.7178 C16.7293,7.7178 16.2813,7.2708 16.2813,6.7178 C16.2813,6.1658 16.7293,5.7178 17.2813,5.7178 Z M20.2813,5.7178 C20.8343,5.7178 21.2813,6.1658 21.2813,6.7178 C21.2813,7.2708 20.8343,7.7178 20.2813,7.7178 C19.7293,7.7178 19.2813,7.2708 19.2813,6.7178 C19.2813,6.1658 19.7293,5.7178 20.2813,5.7178 Z" id="Combined-Shape" fill="#FFFFFF"></path>
    </g>
</svg>