<?xml version="1.0" encoding="UTF-8"?>
<svg width="24px" height="24px" viewBox="0 0 24 24" version="1.1" xmlns="http://www.w3.org/2000/svg" xmlns:xlink="http://www.w3.org/1999/xlink">
    <!-- Generator: Sketch 52.6 (67491) - http://www.bohemiancoding.com/sketch -->
    <title>Icon/Dark/Workflow</title>
    <desc>Created with Sketch.</desc>
    <defs>
        <rect id="path-1" x="0" y="0" width="24" height="24"></rect>
    </defs>
    <g id="Icon/Dark/Workflow" stroke="none" stroke-width="1" fill="none" fill-rule="evenodd">
        <mask id="mask-2" fill="white">
            <use xlink:href="#path-1"></use>
        </mask>
        <g id="Background"></g>
        <g id="Group-8" mask="url(#mask-2)">
            <g transform="translate(0.000000, 3.000000)">
                <polygon id="Fill-1" fill="#2ED573" points="0 9.67269565 4.71026087 14.3829565 9.41947826 9.67269565 4.71026087 4.96243478"></polygon>
                <path d="M12.6540522,17.4290783 C11.6272696,17.4290783 10.5994435,17.0377739 9.81683478,16.2551652 L0.68013913,7.11846957 L2.15561739,5.6429913 L11.292313,14.779687 C12.0436174,15.5289043 13.2634435,15.5309913 14.0168348,14.779687 C14.7670957,14.0283826 14.7670957,12.8064696 14.0168348,12.0562087 L8.85161739,6.89203478 C7.28744348,5.32786087 7.28744348,2.78177391 8.85161739,1.2176 C10.4157913,-0.346573913 12.9608348,-0.34866087 14.5270957,1.2176 L23.6637913,10.3532522 L22.188313,11.8287304 L13.0516174,2.69307826 C12.2992696,1.94281739 11.0794435,1.94281739 10.3281391,2.69307826 C9.57683478,3.44438261 9.57683478,4.66629565 10.3281391,5.41655652 L15.492313,10.5807304 C17.056487,12.1449043 17.056487,14.6909913 15.492313,16.2551652 C14.7097043,17.0377739 13.6818783,17.4290783 12.6540522,17.4290783" id="Fill-2" fill="#FFFFFF"></path>
                <path d="M21.9893217,10.1542609 C20.7006261,11.444 18.6105391,11.444 17.3208,10.1542609 C16.0321043,8.86556522 16.0321043,6.77547826 17.3208,5.48573913 C18.6105391,4.19704348 20.7006261,4.19704348 21.9893217,5.48573913 C23.2780174,6.77547826 23.2780174,8.86556522 21.9893217,10.1542609" id="Fill-5" fill="#2ED573"></path>
            </g>
        </g>
    </g>
</svg>