<?xml version="1.0" encoding="UTF-8"?>
<svg width="24px" height="24px" viewBox="0 0 24 24" version="1.1" xmlns="http://www.w3.org/2000/svg" xmlns:xlink="http://www.w3.org/1999/xlink">
    <!-- Generator: Sketch 52.6 (67491) - http://www.bohemiancoding.com/sketch -->
    <title>Icon/Dark/Solutions/Finance</title>
    <desc>Created with Sketch.</desc>
    <g id="Icon/Dark/Solutions/Finance" stroke="none" stroke-width="1" fill="none" fill-rule="evenodd">
        <path d="M4,24 C3.447,24 3,23.552 3,23 L3,21 C3,20.447 3.447,20 4,20 C4.552,20 5,20.447 5,21 L5,23 C5,23.552 4.552,24 4,24" id="Fill-1" fill="#FFFFFF"></path>
        <path d="M20,24 C19.447,24 19,23.552 19,23 L19,21 C19,20.447 19.447,20 20,20 C20.552,20 21,20.447 21,21 L21,23 C21,23.552 20.552,24 20,24" id="Fill-4" fill="#FFFFFF"></path>
        <path d="M22,22 L2,22 C0.896,22 0,21.104 0,20 L0,2 C0,0.896 0.896,0 2,0 L22,0 C23.104,0 24,0.896 24,2 L24,20 C24,21.104 23.104,22 22,22" id="Fill-7" fill="#2ED573"></path>
        <path d="M8.52490293,6.11100293 C9.50602889,5.4116819 10.7057422,5 12,5 C13.2940236,5 14.4935368,5.41153287 15.4745643,6.11062321 L18.2932,3.2928 C18.6832,2.9028 19.3162,2.9028 19.7072,3.2928 C20.0972,3.6838 20.0972,4.3168 19.7072,4.7068 L16.8887006,7.52448697 C17.5882017,8.50568979 18,9.70555925 18,11 C18,12.2940234 17.5884672,13.4935365 16.8893771,14.4745639 L19.707,17.293 C20.098,17.684 20.098,18.316 19.707,18.707 C19.512,18.902 19.256,19 19,19 C18.744,19 18.488,18.902 18.293,18.707 L15.4755134,15.8887003 C14.4943105,16.5882016 13.2944409,17 12,17 C10.7057678,17 9.50607648,16.5883344 8.52496132,15.8890387 L5.707,18.707 C5.512,18.902 5.256,19 5,19 C4.744,19 4.488,18.902 4.293,18.707 C3.902,18.316 3.902,17.684 4.293,17.293 L7.11096132,14.4750387 C6.41166556,13.4939235 6,12.2942322 6,11 C6,9.70579351 6.41164923,8.50612408 7.1109197,7.5250197 L4.2928,4.7069 C3.9028,4.3169 3.9028,3.6839 4.2928,3.2929 C4.6838,2.9029 5.3168,2.9029 5.7068,3.2929 L8.52490293,6.11100293 Z M9.10451851,13.7573464 C9.12947209,13.7778421 9.15366694,13.7997266 9.177,13.823 C9.20027338,13.8463331 9.22215791,13.8705279 9.2426536,13.8954815 C9.96068536,14.5795629 10.9320651,15 12,15 C14.206,15 16,13.206 16,11 C16,9.92424744 15.5733849,8.94646891 14.8804161,8.22692572 C14.8611779,8.2103981 14.8424226,8.19302259 14.8242,8.1748 C14.8060069,8.15660686 14.7886602,8.13789195 14.7721602,8.11870383 C14.0527031,7.42625389 13.0752971,7 12,7 C9.794,7 8,8.794 8,11 C8,12.0679349 8.42043708,13.0393146 9.10451851,13.7573464 Z M23,5.7998 L24,5.7998 L24,7.7998 L23,7.7998 C22.447,7.7998 22,7.3528 22,6.7998 C22,6.2468 22.447,5.7998 23,5.7998 Z M23,15.1992 L24,15.1992 L24,17.1992 L23,17.1992 C22.447,17.1992 22,16.7522 22,16.1992 C22,15.6462 22.447,15.1992 23,15.1992 Z" id="Combined-Shape" fill="#FFFFFF"></path>
    </g>
</svg>