<?xml version="1.0" encoding="UTF-8"?>
<svg width="24px" height="24px" viewBox="0 0 24 24" version="1.1" xmlns="http://www.w3.org/2000/svg" xmlns:xlink="http://www.w3.org/1999/xlink">
    <!-- Generator: Sketch 52.6 (67491) - http://www.bohemiancoding.com/sketch -->
    <title>Icon/Dark/Solutions/Logistics</title>
    <desc>Created with Sketch.</desc>
    <g id="Icon/Dark/Solutions/Logistics" stroke="none" stroke-width="1" fill="none" fill-rule="evenodd">
        <g id="Group">
            <path d="M17.4798,9.5639 C17.8118,10.3089 18.0008,11.1319 18.0008,12.0009 C18.0008,12.8689 17.8118,13.6919 17.4798,14.4369 C17.2878,14.4799 17.0928,14.5229 16.8898,14.5619 C16.9598,13.7179 17.0008,12.8589 17.0008,12.0009 C17.0008,11.1419 16.9598,10.2829 16.8898,9.4389 C16.8598,9.0849 16.8248,8.7339 16.7818,8.3869 C17.0568,8.7499 17.2928,9.1429 17.4798,9.5639 Z M9.4388,16.89 C10.2838,16.96 11.1408,17 12.0008,17 C12.8598,17 13.7168,16.96 14.5618,16.89 C14.5228,17.093 14.4798,17.286 14.4368,17.48 C13.6918,17.812 12.8688,18 12.0008,18 C11.1318,18 10.3088,17.812 9.5638,17.48 C9.1428,17.292 8.7508,17.057 8.3868,16.783 C8.7338,16.825 9.0848,16.86 9.4388,16.89 Z M14.5618,7.1108 C14.6818,7.7408 14.7798,8.4228 14.8538,9.1458 C14.9458,10.0358 14.9998,10.9868 14.9998,12.0008 C14.9998,13.0138 14.9458,13.9648 14.8538,14.8548 C13.9648,14.9458 13.0138,15.0008 11.9998,15.0008 C10.9868,15.0008 10.0358,14.9458 9.1468,14.8548 C8.4228,14.7808 7.7408,14.6818 7.1108,14.5618 C6.9078,14.5228 6.7128,14.4798 6.5208,14.4368 C6.1888,13.6918 5.9998,12.8688 5.9998,12.0008 C5.9998,11.1318 6.1888,10.3088 6.5208,9.5638 C6.7078,9.1428 6.9438,8.7498 7.2188,8.3868 C7.5528,7.9458 7.9458,7.5528 8.3868,7.2178 C8.7498,6.9438 9.1428,6.7088 9.5638,6.5208 C10.3088,6.1888 11.1318,6.0008 11.9998,6.0008 C12.8688,6.0008 13.6918,6.1888 14.4368,6.5208 C14.4798,6.7148 14.5228,6.9078 14.5618,7.1108 Z" id="Combined-Shape" fill="#FFFFFF"></path>
            <path d="M15.179,21.474 C15.848,20.184 16.337,18.5 16.638,16.638 C18.5,16.337 20.184,15.849 21.474,15.179 C20.478,18.137 18.137,20.478 15.179,21.474 M2.527,15.179 C3.817,15.848 5.5,16.337 7.363,16.638 C7.663,18.5 8.153,20.184 8.822,21.474 C5.864,20.478 3.523,18.137 2.527,15.179 M8.822,2.527 C8.153,3.817 7.663,5.5 7.363,7.363 C5.5,7.663 3.817,8.153 2.527,8.822 C3.523,5.864 5.864,3.523 8.822,2.527 M21.474,8.822 C20.184,8.152 18.5,7.663 16.638,7.363 C16.337,5.5 15.848,3.817 15.179,2.527 C18.137,3.523 20.478,5.864 21.474,8.822 M2,12 C2,11.224 3.692,10.193 6.521,9.564 C6.708,9.143 6.944,8.749 7.219,8.387 C7.553,7.946 7.946,7.553 8.387,7.218 C8.75,6.944 9.143,6.708 9.564,6.521 C10.193,3.692 11.224,2 12,2 C12.777,2 13.808,3.692 14.437,6.521 C14.48,6.714 14.523,6.908 14.562,7.111 C14.682,7.741 14.78,8.423 14.854,9.146 C14.946,10.036 15,10.987 15,12 C15,13.014 14.946,13.965 14.854,14.855 C13.965,14.946 13.014,15 12,15 C10.987,15 10.035,14.946 9.147,14.855 C8.423,14.781 7.741,14.682 7.111,14.562 C6.908,14.523 6.713,14.48 6.521,14.437 C3.692,13.808 2,12.777 2,12 M12,22 C11.224,22 10.193,20.309 9.564,17.48 C9.143,17.292 8.75,17.057 8.387,16.783 C8.734,16.825 9.084,16.86 9.439,16.89 C10.283,16.96 11.141,17 12,17 C12.86,17 13.717,16.96 14.562,16.89 C14.523,17.093 14.48,17.287 14.437,17.48 C13.808,20.309 12.777,22 12,22 M17.48,14.437 C17.287,14.48 17.093,14.523 16.89,14.562 C16.96,13.718 17,12.859 17,12 C17,11.142 16.96,10.283 16.89,9.439 C16.86,9.085 16.825,8.734 16.782,8.387 C17.057,8.749 17.292,9.143 17.48,9.564 C20.309,10.193 22,11.224 22,12 C22,12.777 20.309,13.808 17.48,14.437 M0,12 C0,18.618 5.383,24 12,24 C18.617,24 24,18.618 24,12 C24,5.383 18.617,0 12,0 C5.383,0 0,5.383 0,12 Z" id="Fill-7" fill="#2ED573"></path>
        </g>
    </g>
</svg>