<?xml version="1.0" encoding="UTF-8"?>
<svg width="24px" height="24px" viewBox="0 0 24 24" version="1.1" xmlns="http://www.w3.org/2000/svg" xmlns:xlink="http://www.w3.org/1999/xlink">
    <!-- Generator: Sketch 52.6 (67491) - http://www.bohemiancoding.com/sketch -->
    <title>Icon/Dark/Solutions/Pricing</title>
    <desc>Created with Sketch.</desc>
    <g id="Icon/Dark/Solutions/Pricing" stroke="none" stroke-width="1" fill="none" fill-rule="evenodd">
        <g id="Group">
            <path d="M12.686,0 L21.254,0 L23.999,2.746 L23.999,11.314 L11.314,24 L2.48689958e-13,12.687 L12.686,0 Z M16.9994,5.0004 C16.9994,6.1044 17.8954,7.0004 18.9994,7.0004 C20.1034,7.0004 20.9994,6.1044 20.9994,5.0004 C20.9994,3.8964 20.1034,3.0004 18.9994,3.0004 C17.8954,3.0004 16.9994,3.8964 16.9994,5.0004 Z" id="Combined-Shape" fill="#2ED573"></path>
            <path d="M9.9144,15.4994 L9.1712,16.2426 L7.7572,14.8286 L8.5004,14.0854 L7.0863,12.6713 L8.5003,11.2573 L9.9144,12.6714 L10.5853164,12.0004836 L10.2303,11.6453 C9.2573,10.6723 9.2493,9.0953 10.2123,8.1303 C11.1793,7.1653 12.7563,7.1733 13.7293,8.1463 L14.0844,8.5014 L14.8282,7.7576 L16.2422,9.1716 L15.4984,9.9154 L16.9123,11.3293 L15.4983,12.7433 L14.0841779,11.3296221 L13.4134,12.0004 L13.7693,12.3563 C14.7423,13.3293 14.7503,14.9063 13.7853,15.8713 C13.3063,16.3513 12.6753,16.5893 12.0423,16.5903 C11.4013,16.5903 10.7593,16.3443 10.2703,15.8553 L9.9144,15.4994 Z M11.3284,14.0854 L11.6843,14.4413 C11.8783,14.6353 12.1863,14.6423 12.3723,14.4563 C12.5563,14.2733 12.5493,13.9643 12.3543,13.7703 L11.9989836,13.4148164 L11.3284,14.0854 Z M12.6699559,9.91584415 L12.3143,9.5603 C12.1213,9.3663 11.8133,9.3613 11.6263,9.5443 C11.4423,9.7283 11.4493,10.0363 11.6443,10.2313 L11.9994,10.5864 L12.6699559,9.91584415 Z" id="Combined-Shape" fill="#FFFFFF"></path>
        </g>
    </g>
</svg>