<?xml version="1.0" encoding="UTF-8"?>
<svg width="24px" height="24px" viewBox="0 0 24 24" version="1.1" xmlns="http://www.w3.org/2000/svg" xmlns:xlink="http://www.w3.org/1999/xlink">
    <!-- Generator: Sketch 52.6 (67491) - http://www.bohemiancoding.com/sketch -->
    <title>Icon/Light/Solutions/Bonds</title>
    <desc>Created with Sketch.</desc>
    <g id="Icon/Light/Solutions/Bonds" stroke="none" stroke-width="1" fill="none" fill-rule="evenodd">
        <path d="M4.9996,17.586 L10.5654,12.0202 C10.9104,12.6042 11.3954,13.0882 11.9804,13.4342 L6.4154,18.9992 L20.1720713,18.9992 L19.0508,17.8774 L20.4648,16.4634 L23.9998,19.9994 L20.4648,23.5344 L19.0508,22.1204 L20.172,20.9992 L3.9996,20.9992 L3.9996,19.9992 L2.9996,19.9992 L2.9996,3.82792856 L1.878,4.949 L0.464,3.535 L4,3.73034936e-14 L7.535,3.535 L6.121,4.949 L4.9996,3.8276 L4.9996,17.586 Z M21,4.4137 L18.954,6.4597 L17.434,7.9787 C17.09,7.3947 16.605,6.9107 16.02,6.5647 L17.54,5.0457 L19.5861,2.9996 L18,2.9996 L18,0.9996 L23,0.9996 L23,5.9996 L21,5.9996 L21,4.4137 Z M16.0205,6.5651 C16.6055,6.9111 17.0895,7.3951 17.4335,7.9791 L14.4995,10.9141 L11.9805,13.4341 C11.3955,13.0881 10.9105,12.6041 10.5655,12.0201 L13.0855,9.5011 L16.0205,6.5651 Z" id="Combined-Shape" fill="#1B202A"></path>
        <path d="M11.9805,13.4342 L14.5005,10.9132 L17.4335,7.9792 C17.7855,8.5752 18.0005,9.2582 18.0005,9.9982 C18.0005,12.2082 16.2095,13.9982 14.0005,13.9982 C13.2595,13.9982 12.5745,13.7842 11.9805,13.4342 Z M16.0205,6.5651 L13.0855,9.5011 L10.5655,12.0201 C10.2145,11.4241 9.9995,10.7401 9.9995,9.9991 C9.9995,7.7901 11.7915,5.9991 13.9995,5.9991 C14.7405,5.9991 15.4255,6.2141 16.0205,6.5651 Z M8,19.9996 C8,22.2086 6.209,23.9996 4,23.9996 C1.79,23.9996 5.15143483e-14,22.2086 5.15143483e-14,19.9996 C5.15143483e-14,17.7896 1.79,15.9996 4,15.9996 C6.209,15.9996 8,17.7896 8,19.9996 Z" id="Combined-Shape" fill="#2ED573"></path>
    </g>
</svg>