<?xml version="1.0" encoding="UTF-8"?>
<svg width="24px" height="24px" viewBox="0 0 24 24" version="1.1" xmlns="http://www.w3.org/2000/svg" xmlns:xlink="http://www.w3.org/1999/xlink">
    <!-- Generator: Sketch 52.6 (67491) - http://www.bohemiancoding.com/sketch -->
    <title>Icon/Light/Solutions/Finance</title>
    <desc>Created with Sketch.</desc>
    <g id="Icon/Light/Solutions/Finance" stroke="none" stroke-width="1" fill="none" fill-rule="evenodd">
        <path d="M4.0001,24.0001 C3.4471,24.0001 3.0001,23.5521 3.0001,23.0001 L3.0001,21.0001 C3.0001,20.4471 3.4471,20.0001 4.0001,20.0001 C4.5521,20.0001 5.0001,20.4471 5.0001,21.0001 L5.0001,23.0001 C5.0001,23.5521 4.5521,24.0001 4.0001,24.0001" id="Fill-1" fill="#2FD573"></path>
        <path d="M20.0001,24.0001 C19.4471,24.0001 19.0001,23.5521 19.0001,23.0001 L19.0001,21.0001 C19.0001,20.4471 19.4471,20.0001 20.0001,20.0001 C20.5521,20.0001 21.0001,20.4471 21.0001,21.0001 L21.0001,23.0001 C21.0001,23.5521 20.5521,24.0001 20.0001,24.0001" id="Fill-4" fill="#2FD573"></path>
        <path d="M22.0001,22.0001 L2.0001,22.0001 C0.8961,22.0001 0.0001,21.1041 0.0001,20.0001 L0.0001,2.0001 C0.0001,0.8961 0.8961,0.0001 2.0001,0.0001 L22.0001,0.0001 C23.1041,0.0001 24.0001,0.8961 24.0001,2.0001 L24.0001,20.0001 C24.0001,21.1041 23.1041,22.0001 22.0001,22.0001" id="Fill-7" fill="#1B202A"></path>
        <path d="M12.0001,17.0001 C8.6911,17.0001 6.0001,14.3091 6.0001,11.0001 C6.0001,7.6911 8.6911,5.0001 12.0001,5.0001 C15.3091,5.0001 18.0001,7.6911 18.0001,11.0001 C18.0001,14.3091 15.3091,17.0001 12.0001,17.0001 Z M12.0001,7.0001 C9.7941,7.0001 8.0001,8.7941 8.0001,11.0001 C8.0001,13.2061 9.7941,15.0001 12.0001,15.0001 C14.2061,15.0001 16.0001,13.2061 16.0001,11.0001 C16.0001,8.7941 14.2061,7.0001 12.0001,7.0001 Z" id="Combined-Shape" fill="#2FD573"></path>
        <path d="M15.5313,8.4679 C15.2753,8.4679 15.0193,8.3699 14.8243,8.1749 C14.4333,7.7839 14.4333,7.1519 14.8243,6.7609 L18.2933,3.2929 C18.6833,2.9029 19.3163,2.9029 19.7073,3.2929 C20.0973,3.6839 20.0973,4.3169 19.7073,4.7069 L16.2383,8.1749 C16.0433,8.3699 15.7873,8.4679 15.5313,8.4679" id="Fill-12" fill="#2FD573"></path>
        <path d="M5.0001,19.0001 C4.7441,19.0001 4.4881,18.9021 4.2931,18.7071 C3.9021,18.3161 3.9021,17.6841 4.2931,17.2931 L7.7631,13.8231 C8.1531,13.4331 8.7861,13.4331 9.1771,13.8231 C9.5671,14.2141 9.5671,14.8471 9.1771,15.2371 L5.7071,18.7071 C5.5121,18.9021 5.2561,19.0001 5.0001,19.0001" id="Fill-14" fill="#2FD573"></path>
        <path d="M19.0001,19.0001 C18.7441,19.0001 18.4881,18.9021 18.2931,18.7071 L14.8281,15.2411 C14.4381,14.8511 14.4381,14.2181 14.8281,13.8271 C15.2191,13.4371 15.8521,13.4371 16.2421,13.8271 L19.7071,17.2931 C20.0981,17.6841 20.0981,18.3161 19.7071,18.7071 C19.5121,18.9021 19.2561,19.0001 19.0001,19.0001" id="Fill-16" fill="#2FD573"></path>
        <path d="M8.4649,8.465 C8.2089,8.465 7.9529,8.367 7.7579,8.172 L4.2929,4.707 C3.9029,4.317 3.9029,3.684 4.2929,3.293 C4.6839,2.903 5.3169,2.903 5.7069,3.293 L9.1719,6.758 C9.5629,7.149 9.5629,7.781 9.1719,8.172 C8.9769,8.367 8.7209,8.465 8.4649,8.465" id="Fill-18" fill="#2FD573"></path>
        <path d="M23.0001,5.7999 C22.4471,5.7999 22.0001,6.2469 22.0001,6.7999 C22.0001,7.3529 22.4471,7.7999 23.0001,7.7999 L24.0001,7.7999 L24.0001,5.7999 L23.0001,5.7999 Z" id="Fill-20" fill="#2FD573"></path>
        <path d="M23.0001,15.1993 C22.4471,15.1993 22.0001,15.6463 22.0001,16.1993 C22.0001,16.7523 22.4471,17.1993 23.0001,17.1993 L24.0001,17.1993 L24.0001,15.1993 L23.0001,15.1993 Z" id="Fill-23" fill="#2FD573"></path>
    </g>
</svg>