<?xml version="1.0" encoding="UTF-8"?>
<svg width="24px" height="24px" viewBox="0 0 24 24" version="1.1" xmlns="http://www.w3.org/2000/svg" xmlns:xlink="http://www.w3.org/1999/xlink">
    <!-- Generator: Sketch 52.6 (67491) - http://www.bohemiancoding.com/sketch -->
    <title>Icon/Light/Solutions/Telecommunications</title>
    <desc>Created with Sketch.</desc>
    <g id="Icon/Light/Solutions/Telecommunications" stroke="none" stroke-width="1" fill="none" fill-rule="evenodd">
        <path d="M14.9996,12.0004 C14.9996,13.6564 13.6566,15.0004 11.9996,15.0004 C10.3436,15.0004 8.9996,13.6564 8.9996,12.0004 C8.9996,10.3434 10.3436,9.0004 11.9996,9.0004 C13.6566,9.0004 14.9996,10.3434 14.9996,12.0004" id="Fill-1" fill="#2FD573"></path>
        <path d="M-0.0004,12.0893 C-0.0004,18.7173 5.3726,24.0893 11.9996,24.0893 C15.3136,24.0893 18.3136,22.7463 20.4846,20.5743 L3.5146,3.6043 C1.3436,5.7763 -0.0004,8.7763 -0.0004,12.0893" id="Fill-3" fill="#1B202A"></path>
        <polygon id="Fill-6" fill="#2FD573" points="23.9098 5.4906 21.5998 4.1566 23.9998 0.0006 15.7808 3.5686 18.0908 4.9016 15.6908 9.0586"></polygon>
    </g>
</svg>