<svg xmlns="http://www.w3.org/2000/svg" viewBox="0 0 368.62 100"><defs><style>.cls-1{fill:#2ED573;}</style></defs><title>logo</title><g id="Layer_2" data-name="Layer 2"><g id="horizontal"><path class="cls-1" d="M121.25,73.64c5.66,0,10.12-2.47,12.66-7H134v6.62h6V18.54h-6.32V40.45h-.14c-2.4-4.28-6.9-6.72-12.49-6.72-9.73,0-16.62,8-16.62,20S111.41,73.64,121.25,73.64Zm1.12-34.28c6.79,0,11.4,5.82,11.4,14.33S129.16,68,122.37,68s-11.43-5.64-11.43-14.32S115.51,39.36,122.37,39.36Zm39.71,28.79c-4.94,0-8.1-2.36-8.1-6s3.05-5.93,8.93-6.29l10.24-.66v3.17C173.15,64,168.46,68.15,162.08,68.15Zm-1.35,5.49c5.48,0,10.38-2.8,12.6-7.16h.14v6.8h6V46.38c0-7.71-6-12.65-15.21-12.65-8.2,0-14.62,5.05-14.8,11.67h6.06c.76-3.71,4.13-6,8.67-6,5.77,0,9,2.69,9,7.57V50.2l-11,.65c-9.51.58-14.67,4.54-14.67,11.27C147.52,69.06,152.78,73.64,160.73,73.64Zm29.51-48.38v8.83h-5.45v5.24h5.45V63.1c0,7.53,2.76,10.47,9.84,10.47a22.92,22.92,0,0,0,4.06-.33V67.9a27,27,0,0,1-2.72.18c-3.34,0-4.87-1.63-4.87-5.23V39.33h7.63V34.09h-7.63V25.26Zm33.68,42.89c-4.94,0-8.09-2.36-8.09-6s3-5.93,8.92-6.29L235,55.21v3.17C235,64,230.31,68.15,223.92,68.15Zm-1.34,5.49c5.48,0,10.38-2.8,12.59-7.16h.15v6.8h6V46.38c0-7.71-6-12.65-15.2-12.65-8.21,0-14.63,5.05-14.81,11.67h6.06c.76-3.71,4.14-6,8.67-6,5.77,0,9,2.69,9,7.57V50.2l-11,.65c-9.51.58-14.66,4.54-14.66,11.27C209.37,69.06,214.63,73.64,222.58,73.64Zm29.5-48.38v8.83h-5.44v5.24h5.44V63.1c0,7.53,2.76,10.47,9.84,10.47a22.83,22.83,0,0,0,4.06-.33V67.9a26.83,26.83,0,0,1-2.72.18c-3.34,0-4.86-1.63-4.86-5.23V39.33H266V34.09H258.4V25.26Zm21.27,48h6.32V49c0-5.52,3.33-9.23,8.42-9.23a13.15,13.15,0,0,1,3.44.36V34a14.09,14.09,0,0,0-2.61-.22c-4.57,0-8.31,2.62-9.47,6.72h-.15V34.09h-5.95Zm38.18.36c11,0,18-7.81,18-20s-7-20-18-20-18,7.78-18,20S300.53,73.64,311.53,73.64Zm0-5.63c-7.26,0-11.61-5.34-11.61-14.32s4.32-14.33,11.61-14.33,11.61,5.31,11.61,14.33S318.83,68,311.53,68Zm25,5.27h6.31V50.52c0-6.72,3.89-11.16,10.31-11.16,6.17,0,9.15,3.49,9.15,9.89v24h6.31V48.16c0-8.9-5-14.43-13.57-14.43-6.06,0-9.95,2.29-12.42,6.72h-.14V34.09h-5.95ZM42.75,0,0,25V75l42.75,25L85.5,75V25ZM77.5,70.41,42.75,90.73,8,70.41V29.59L42.75,9.27,77.5,29.59ZM40.75,51.14V80.3L16,65.82V36.61Zm2-3.46L17.89,33.08,42.75,18.54,67.62,33.08ZM69.5,65.82,44.75,80.3V51.14L69.5,36.61Z"/></g></g></svg>
