<?xml version="1.0" encoding="UTF-8"?>
<svg width="212px" height="79px" viewBox="0 0 212 79" version="1.1" xmlns="http://www.w3.org/2000/svg" xmlns:xlink="http://www.w3.org/1999/xlink">
    <!-- Generator: Sketch 52.6 (67491) - http://www.bohemiancoding.com/sketch -->
    <title>ford-vector-logo</title>
    <desc>Created with Sketch.</desc>
    <g id="Page-1" stroke="none" stroke-width="1" fill="none" fill-rule="evenodd">
        <g id="Logos-Added" transform="translate(-644.000000, -2977.000000)" fill-rule="nonzero">
            <g id="Group-14-Copy" transform="translate(2.000000, 2924.000000)">
                <g id="Group" transform="translate(248.000000, 42.000000)">
                    <g id="Group-2">
                        <g id="ford-vector-logo" transform="translate(394.000000, 11.000000)">
                            <path d="M106,0 C47.152662,0 0,17.5367836 0,39.5 C0,61.3280582 47.5606158,79 106,79 C164.439384,79 212,61.260479 212,39.5 C212,17.739521 164.439384,0 106,0" id="Path" fill="#1B202A"></path>
                            <path d="M167.947555,27.4131786 C168.082851,27.1721577 167.947555,27 167.64314,27 C166.053416,27 163.956333,27 162.332785,27 C161.926899,27 161.723955,27.0344315 161.554835,27.4131786 C160.946005,28.6182827 153.504744,39.9806934 152.117963,42.1843124 C151.881196,42.5286279 151.610604,42.4597648 151.57678,42.0810178 C151.441485,40.772619 150.325296,39.2576309 148.566452,38.5345684 C147.247319,37.9836636 145.928187,37.880369 144.57523,38.0525267 C142.139908,38.3968422 139.941354,39.705241 138.01339,41.1857975 C135.104534,43.4238481 132.635388,46.3160981 129.388292,48.4852856 C127.629449,49.6559582 125.227951,50.6544731 123.604403,49.139485 C122.149974,47.7622231 122.319094,44.6978154 124.551472,42.3220386 C124.78824,42.0810178 125.058831,42.287607 125.025007,42.4941963 C124.822064,43.5615743 125.092655,44.6289523 125.870605,45.3520148 C126.851499,46.247235 128.238279,46.3505296 129.422116,45.7651933 C130.84272,45.0421308 131.654494,43.6993005 131.891262,42.1154493 C132.263325,39.705241 130.436834,37.570485 128.170631,37.3983273 C126.310316,37.2606011 124.551472,37.9148005 122.792629,39.3953571 C121.913207,40.1184196 121.439672,40.6693243 120.661722,41.7711338 C120.492602,42.0465862 120.188187,42.0810178 120.222011,41.6678392 C120.323483,38.5689999 119.038174,36.8474226 116.535204,36.7785595 C114.607241,36.7441279 112.510158,37.8115059 110.886611,39.1199047 C109.093943,40.5660297 107.571867,42.4941963 105.880671,44.3190683 C105.677728,44.5256576 105.508608,44.5256576 105.44096,44.1124791 C105.373312,42.0810178 104.899778,40.083988 103.952708,38.6722946 C103.614469,38.1902529 102.93799,37.9492321 102.362984,38.259116 C102.092393,38.3968422 101.145323,38.8444523 100.468845,39.3953571 C100.130606,39.6708094 99.9953099,40.083988 100.130606,40.6004612 C101.043851,43.6648689 100.840908,47.1424552 99.6232468,50.0691368 C98.5070576,52.7547974 96.342327,55.1994373 93.7717095,55.9913629 C92.0805137,56.5422677 90.3216701,56.2668153 89.2393049,54.7518272 C87.7510526,52.6515028 88.3598831,49.0017588 90.5584376,45.9717826 C92.5202246,43.3205535 95.3614335,41.5989761 98.1688185,40.5315981 C98.5070576,40.3938719 98.5747054,40.1872827 98.4732337,39.9118303 C98.337938,39.4297886 98.0673467,38.8100208 97.965875,38.5001368 C97.6952836,37.8115059 96.9849814,37.6737797 96.1055596,37.7770743 C94.0423008,38.0180952 92.2158094,38.7411577 90.389318,39.7396725 C85.6201459,42.3564701 83.218648,47.3834761 82.1362827,50.1035683 C81.628924,51.4119671 81.1892131,52.2038927 80.6480304,52.9269552 C79.9039043,53.8910385 78.9568347,54.7862587 77.1979911,56.3012468 C77.0288715,56.438973 76.9273998,56.7488569 77.0626954,57.0243093 C77.231815,57.4030563 78.1450607,58.6770236 78.3818281,58.8147498 C78.6524194,58.952476 78.9906586,58.7458867 79.1259542,58.6770236 C80.3436152,57.8506665 81.7980435,56.5078361 82.5083458,55.6126159 C82.7451132,55.302732 83.0157045,55.4404581 83.1510001,55.8880683 C83.8274784,58.2982766 85.5524981,60.2608748 87.9539961,61.0872319 C92.3511051,62.60222 96.9173336,60.398601 100.333549,56.6111308 C102.532104,54.2009224 103.310054,52.6515028 104.155651,51.5841248 C105.576256,49.7936844 108.383641,45.7996249 111.698385,43.2172588 C112.916045,42.2531755 114.370474,41.530113 115.080776,42.0121547 C115.655783,42.3909017 115.858726,43.2861219 114.911656,45.0421308 C111.529265,51.343104 106.523326,58.7803182 105.61008,60.5707587 C105.44096,60.8806426 105.576256,61.1216635 105.914495,61.1216635 C107.707163,61.1216635 109.466006,61.1216635 111.05573,61.1216635 C111.326321,61.1216635 111.461617,60.9839373 111.596913,60.777348 C114.201354,56.6111308 116.6705,52.6515028 119.274942,48.5885802 C119.410237,48.3475594 119.545533,48.5197171 119.545533,48.6230118 C119.613181,49.5870951 119.816124,50.8610623 120.391131,51.721851 C121.372024,53.3057022 122.792629,53.9599016 124.348529,53.9943332 C125.600014,53.9943332 126.208844,53.8221754 127.561801,53.3057022 C128.644166,52.8925236 129.523588,52.3416189 130.200066,51.8595772 C130.605953,51.5841248 130.673601,52.031735 130.639777,52.100598 C130.030947,55.4060266 130.775073,59.2967915 133.988345,60.9495057 C137.844271,62.8776724 142.07226,60.1575801 144.507582,57.7129403 C144.74435,57.4719194 145.014941,57.506351 145.014941,58.0228242 C145.082589,58.952476 145.488476,60.088717 146.232602,60.8462111 C148.262037,62.9465355 152.388554,62.1201783 156.515072,58.8491813 C159.153337,56.7488569 161.960722,53.8221754 164.463692,50.6889046 C164.565164,50.58561 164.632812,50.3790207 164.463692,50.1724314 C164.091629,49.7592528 163.516623,49.3116427 163.144559,48.9328957 C162.97544,48.7951695 162.738672,48.829601 162.569553,48.9328957 C159.998935,51.4119671 157.665085,54.2697855 154.350342,56.6111308 C153.234152,57.4030563 151.407661,58.0572557 150.629711,56.9554462 C150.325296,56.5422677 150.35912,55.9224998 150.663535,55.1305742 C151.678252,52.7547974 167.135781,28.824872 167.947555,27.4131786 M147.517911,47.4867707 C147.551735,47.6589284 147.788502,47.8310862 148.025269,47.9343808 C148.092917,47.9688124 148.160565,48.0376755 148.059093,48.2098332 C147.416439,49.6559582 146.807608,50.4823153 145.962011,51.721851 C145.217884,52.8580921 144.338463,53.7533123 143.323745,54.6485326 C141.767845,55.9569314 139.603115,57.3686248 137.810447,56.438973 C137.032497,56.0257944 136.660434,54.8895534 136.694258,53.9599016 C136.728082,51.3775356 137.844271,48.7263064 139.941354,46.1439403 C142.478147,42.976238 145.285532,41.3235237 147.112024,42.2187439 C149.006163,43.1483957 148.397332,45.3864463 147.551735,47.1424552 C147.484087,47.2457499 147.484087,47.3834761 147.517911,47.4867707" id="Shape" fill="#FFFFFF"></path>
                            <path d="M55.571799,59.9995325 C49.7849959,60.0327876 44.6789932,56.5410057 44.0662728,50.4885837 C43.7258726,47.1298221 44.7130332,44.1368662 46.6533142,41.6759913 C48.3893552,39.481157 51.2827567,37.6521284 53.7676781,37.2198125 C54.5846385,37.0867923 55.6398791,37.1533024 56.0823993,37.6853835 C56.7972397,38.483505 56.5929996,39.3481367 55.8781592,39.7139425 C54.0059582,40.6450843 51.725277,42.2745825 50.6019563,44.4694168 C49.6828758,46.2651904 49.5126758,48.4267697 50.9083165,50.4885837 C53.2230378,53.9138555 59.7246813,54.0136207 65.7497645,48.5265349 C67.2475253,47.1963322 68.575086,45.8993847 69.9366868,44.3696517 C72.5918082,41.4099508 73.4768487,40.3125336 77.0170106,35.5238042 C77.0510506,35.4572941 77.0850906,35.3907839 77.0510506,35.3575289 C77.0170106,35.2910187 76.9829706,35.2910187 76.8808505,35.2910187 C74.5320893,35.3575289 72.4556481,36.0226302 70.4813271,37.4858531 C69.9026468,37.8849138 69.0856863,37.8516588 68.7112461,37.2863227 C68.3027659,36.6877315 68.6091261,35.8896099 69.2558864,35.424039 C72.4556481,33.2292047 75.99581,32.8301439 79.570012,32.2648077 C79.570012,32.2648077 79.8082921,32.2648077 80.0125322,31.9987672 C81.476253,30.1697386 82.5995736,28.4737303 84.1654144,26.6114466 C85.7312553,24.7159078 87.7736564,22.9866444 89.3394972,21.6564418 C91.5180584,19.8274132 92.9136992,19.1955669 94.3433799,18.4639555 C94.7178201,18.2644251 94.3093399,18.0316396 94.1731798,18.0316396 C86.2418556,16.5684168 78.0041711,14.7061331 70.1409269,17.5328137 C64.6945239,19.5281176 62.3117227,23.7515109 63.4350433,26.5781915 C64.2520037,28.5734955 66.9411652,28.9060461 69.4601265,27.7088638 C71.5365676,26.7112118 73.4768487,25.0817136 74.8724894,23.0198995 C75.6554099,21.8559722 77.2552907,22.6873488 76.4042903,24.7159078 C74.089569,30.0034633 69.6984066,34.1936016 64.3541238,34.3598769 C59.7927613,34.4928971 56.8653197,31.2339007 56.8653197,27.1767827 C56.8993597,19.1955669 65.9880446,13.9412666 75.5192498,13.1764001 C87.024776,12.2452582 97.9175819,15.2382141 109.355028,16.6016718 C118.103313,17.6325789 126.511197,17.6658339 135.293522,15.67053 C136.348763,15.4377445 137.063603,16.1028458 136.995523,17.1337529 C136.893403,18.6302308 135.736042,20.0601987 132.842641,21.5899317 C129.540759,23.3524502 126.102717,23.8845312 122.494475,23.9177863 C113.78023,23.9842964 105.678706,20.6587898 97.2708215,18.8962714 C97.2708215,19.2620771 97.3729416,19.6943929 97.0665814,19.8939233 C92.4371389,23.252685 88.2161766,26.6447017 85.3908551,31.4334311 C85.2887351,31.5331963 85.3568151,31.6329615 85.5270152,31.6329615 C87.9778965,31.4999412 90.1564577,31.4334311 92.4371389,31.2671558 C92.8456191,31.2339007 92.8456191,31.1341355 92.8115791,30.868095 C92.607339,29.2385968 93.0838993,27.343058 94.5816601,26.0461105 C96.1134609,24.7159078 97.9856619,24.5496325 99.2451426,25.5140294 C100.674823,26.6114466 100.538663,28.5734955 99.7557429,30.0367184 C98.9728224,31.5331963 97.6452617,32.3313179 96.385781,32.6971236 C96.385781,32.6971236 96.1134609,32.7636337 96.1475009,32.9964192 C96.2155809,33.3622249 97.9175819,34.2933668 98.0537419,34.5594073 C98.189902,34.7921927 98.121822,35.1579985 97.8495018,35.424039 C97.6793017,35.6235694 97.3729416,35.8230998 97.0325414,35.8230998 C96.7261812,35.8230998 96.5559811,35.7233346 96.1815409,35.5238042 C95.3986205,35.1247434 94.4455,34.426387 93.7987396,33.6615205 C93.5604595,33.39548 93.4583395,33.39548 92.9136992,33.428735 C90.4287778,33.5617553 86.5822558,33.927561 83.9952144,34.2601117 C83.348454,34.3266218 83.280374,34.4596421 83.1442139,34.6591725 C78.9913317,41.3434407 74.5320893,48.593045 69.6643666,53.4150295 C64.5243239,58.6028198 60.2012415,59.9662774 55.571799,59.9995325 M95.1943804,30.2362487 C95.2624604,30.5687994 95.3986205,30.6353095 95.5688206,30.6020545 C96.351741,30.4357791 97.2367815,29.8039329 97.7473818,29.0723214 C98.223942,28.4072201 98.4281821,27.4428232 97.9856619,27.0437624 C97.5771817,26.7112118 96.8963813,26.7777219 96.385781,27.2100378 C95.3645805,28.1079245 95.0582203,29.3051069 95.1943804,30.2362487" id="Shape" fill="#FFFFFF"></path>
                            <path d="M107,75 C50.6746988,75 5,58.8725398 5,39 C5,19.1274602 50.6746988,3 107,3 C163.325301,3 209,19.1274602 209,39 C209,58.8725398 163.325301,75 107,75 M107,5.96907216 C52.6546185,5.96907216 8.58433735,20.814433 8.58433735,38.9662605 C8.58433735,57.1180881 52.6546185,71.9634489 107,71.9634489 C161.345382,71.9634489 205.415663,57.1180881 205.415663,38.9662605 C205.415663,20.814433 161.345382,5.96907216 107,5.96907216 L93.4697495,54.0151536" id="Shape" fill="#FFFFFF"></path>
                        </g>
                    </g>
                </g>
            </g>
        </g>
    </g>
</svg>