
<svg width="40px" height="40px" viewBox="0 0 40 40" version="1.1" xmlns="http://www.w3.org/2000/svg" xmlns:xlink="http://www.w3.org/1999/xlink">
    <g id="Desktop" stroke="none" stroke-width="1" fill="none" fill-rule="evenodd">
        <g id="Home" transform="translate(-240.000000, -1280.000000)">
            <g id="features" transform="translate(0.000000, 960.000000)">
                <g id="content" transform="translate(240.000000, 120.000000)">
                    <g id="Group-13" transform="translate(0.000000, 200.000000)">
                        <g id="icon">
                            <g id="Group">
                                <circle id="Oval" fill="#FFFFFF" cx="20" cy="20" r="20"></circle>
                                <g id="Group-22" transform="translate(9.000000, 8.000000)">
                                    <path d="M14.9999,12.0001 C14.9999,14.2091 13.2089,16.0001 10.9999,16.0001 C8.7909,16.0001 6.9999,14.2091 6.9999,12.0001 C6.9999,9.7911 8.7909,8.0001 10.9999,8.0001 C13.2089,8.0001 14.9999,9.7911 14.9999,12.0001" id="Fill-1" fill="#2FD573"></path>
                                    <path d="M11,10.845391 L3.706011,6.63408095 C3.22772188,6.3579325 2.6161294,6.52179988 2.33998095,7.000089 C2.0638325,7.47837812 2.22769988,8.0899706 2.705989,8.36611905 L10.499989,12.8661191 C10.8093957,13.0447603 11.1906043,13.0447603 11.500011,12.8661191 L19.294011,8.36611905 C19.7723001,8.0899706 19.9361675,7.47837812 19.6600191,7.000089 C19.3838706,6.52179988 18.7722781,6.3579325 18.293989,6.63408095 L11,10.845391 Z" id="Stroke-3" fill="#000000" fill-rule="nonzero"></path>
                                    <path d="M9.9999,12.0001 L9.9999,21.0001 C9.9999,21.5523847 10.4476153,22.0001 10.9999,22.0001 C11.5521847,22.0001 11.9999,21.5523847 11.9999,21.0001 L11.9999,12.0001 C11.9999,11.4478153 11.5521847,11.0001 10.9999,11.0001 C10.4476153,11.0001 9.9999,11.4478153 9.9999,12.0001 Z" id="Stroke-5" fill="#000000" fill-rule="nonzero"></path>
                                    <path d="M10.499889,2.13408095 C10.8092957,1.95543968 11.1905043,1.95543968 11.499911,2.13408095 L19.293911,6.63408095 C19.6033059,6.8127154 19.7939,7.14283895 19.7939,7.5001 L19.7939,16.5001 C19.7939,16.8573611 19.6033059,17.1874846 19.293911,17.3661191 L11.499911,21.8661191 C11.1905043,22.0447603 10.8092957,22.0447603 10.499889,21.8661191 L2.705889,17.3661191 C2.39649412,17.1874846 2.2059,16.8573611 2.2059,16.5001 L2.2059,7.5001 C2.2059,7.14283895 2.39649412,6.8127154 2.705889,6.63408095 L10.499889,2.13408095 Z M10.9999,4.15480901 L4.2059,8.0774418 L4.2059,15.9227582 L10.9999,19.845391 L17.7939,15.9227582 L17.7939,8.0774418 L10.9999,4.15480901 Z" id="Stroke-7" fill="#000000" fill-rule="nonzero"></path>
                                    <path d="M13.9999,3.0001 C13.9999,4.6571 12.6569,6.0001 10.9999,6.0001 C9.3429,6.0001 7.9999,4.6571 7.9999,3.0001 C7.9999,1.3431 9.3429,0.0001 10.9999,0.0001 C12.6569,0.0001 13.9999,1.3431 13.9999,3.0001" id="Fill-9" fill="#2FD573"></path>
                                    <path d="M4.706,4.9015 C6.141,5.7305 6.633,7.5655 5.804,9.0005 C4.976,10.4345 3.141,10.9265 1.706,10.0975 C0.27,9.2695 -0.221,7.4345 0.607,6.0005 C1.436,4.5655 3.27,4.0735 4.706,4.9015" id="Fill-11" fill="#2FD573"></path>
                                    <path d="M1.706,13.9015 C3.141,13.0735 4.976,13.5655 5.804,15.0005 C6.633,16.4345 6.141,18.2695 4.706,19.0975 C3.27,19.9265 1.436,19.4345 0.607,18.0005 C-0.221,16.5655 0.27,14.7305 1.706,13.9015" id="Fill-13" fill="#2FD573"></path>
                                    <path d="M7.9999,21.0001 C7.9999,19.3431 9.3429,18.0001 10.9999,18.0001 C12.6569,18.0001 13.9999,19.3431 13.9999,21.0001 C13.9999,22.6571 12.6569,24.0001 10.9999,24.0001 C9.3429,24.0001 7.9999,22.6571 7.9999,21.0001" id="Fill-15" fill="#2FD573"></path>
                                    <path d="M17.2939,19.0978 C15.8589,18.2698 15.3679,16.4348 16.1959,14.9998 C17.0239,13.5658 18.8589,13.0738 20.2939,13.9018 C21.7299,14.7308 22.2209,16.5658 21.3929,17.9998 C20.5639,19.4348 18.7299,19.9268 17.2939,19.0978" id="Fill-18" fill="#2FD573"></path>
                                    <path d="M20.2939,10.0978 C18.8589,10.9268 17.0239,10.4348 16.1959,8.9998 C15.3679,7.5658 15.8589,5.7308 17.2939,4.9018 C18.7299,4.0738 20.5639,4.5658 21.3929,5.9998 C22.2209,7.4348 21.7299,9.2698 20.2939,10.0978" id="Fill-20" fill="#2FD573"></path>
                                </g>
                            </g>
                        </g>
                    </g>
                </g>
            </g>
        </g>
    </g>
</svg>