
<svg width="60px" height="60px" viewBox="0 0 60 60" version="1.1" xmlns="http://www.w3.org/2000/svg" xmlns:xlink="http://www.w3.org/1999/xlink">
    <defs>
        <rect id="path-1" x="0" y="0" width="28" height="28"></rect>
    </defs>
    <g id="Desktop" stroke="none" stroke-width="1" fill="none" fill-rule="evenodd">
        <g id="Careers" transform="translate(-858.000000, -1330.000000)">
            <g id="core-values" transform="translate(0.000000, 868.000000)">
                <g id="content" transform="translate(240.000000, 120.000000)">
                    <g id="Stacked-Group" transform="translate(618.000000, 0.000000)">
                        <g id="curious" transform="translate(0.000000, 316.000000)">
                            <g id="icon" transform="translate(0.000000, 26.000000)">
                                <circle id="Oval" fill="#FFFFFF" cx="30" cy="30" r="30"></circle>
                                <g id="Icon/Light/Activity-Discover" transform="translate(16.000000, 16.000000)">
                                    <mask id="mask-2" fill="white">
                                        <use xlink:href="#path-1"></use>
                                    </mask>
                                    <g id="Background"></g>
                                    <path d="M20.6581634,19.0781657 L28.0001167,26.3411167 L26.3597833,28.0001167 L19.0031366,20.7236743 C16.9996759,22.3543582 14.4470422,23.3333333 11.6671333,23.3333333 C5.23413333,23.3333333 0.000466666666,18.0996667 0.000466666666,11.6666667 C0.000466666666,5.23366667 5.23413333,0 11.6671333,0 C13.2491333,0 14.7576333,0.319666667 16.1331333,0.893666667 C15.2779667,1.32883333 14.5138,1.911 13.8651333,2.60516667 C13.1581333,2.43483333 12.4243,2.33333333 11.6671333,2.33333333 C6.52096667,2.33333333 2.3338,6.5205 2.3338,11.6666667 C2.3338,16.8128333 6.52096667,21 11.6671333,21 C15.1146333,21 18.1234667,19.117 19.7404667,16.3286667 C19.7708,16.3286667 19.8023,16.3333333 19.8338,16.3333333 C20.7834667,16.3333333 21.6911333,16.1618333 22.5393,15.8655 C22.0843721,17.0393961 21.445511,18.1222973 20.6581634,19.0781657 Z" id="Combined-Shape" fill="#1B202A" fill-rule="evenodd" mask="url(#mask-2)"></path>
                                    <path d="M28.0005833,8.16655 C28.0005833,3.65621667 24.3430833,-0.000116666667 19.8339167,-0.000116666667 C18.49925,-0.000116666667 17.2450833,0.325383333 16.13325,0.89355 C20.3554167,2.64938333 23.3339167,6.81671667 23.3339167,11.66655 C23.3339167,13.1482167 23.0445833,14.5598833 22.5394167,15.8653833 C25.7174167,14.7477167 28.0005833,11.7272167 28.0005833,8.16655" id="Fill-4" fill="#2FD573" fill-rule="evenodd" mask="url(#mask-2)"></path>
                                    <path d="M19.7404667,16.3286667 C20.5373,14.9543333 21.0004667,13.3653333 21.0004667,11.6666667 C21.0004667,7.27883333 17.9519667,3.598 13.8651333,2.60516667 C12.5048,4.06466667 11.6671333,6.01533333 11.6671333,8.16666667 C11.6671333,12.6455 15.2733,16.2785 19.7404667,16.3286667" id="Fill-7" fill="#2FD573" fill-rule="evenodd" mask="url(#mask-2)"></path>
                                    <path d="M16.1333667,0.893083333 C15.2782,1.32825 14.5128667,1.91041667 13.8653667,2.60575 C17.9522,3.59741667 21.0007,7.27941667 21.0007,11.6660833 C21.0007,13.36475 20.5363667,14.9549167 19.7407,16.3280833 C19.7710333,16.3280833 19.8025333,16.33275 19.8340333,16.33275 C20.7825333,16.33275 21.6913667,16.1624167 22.5395333,15.8649167 C23.0447,14.5605833 23.3340333,13.14775 23.3340333,11.6660833 C23.3340333,6.81625 20.3555333,2.65008333 16.1333667,0.893083333" id="Fill-9" fill="#1B202A" fill-rule="evenodd" mask="url(#mask-2)"></path>
                                    <path d="M16.1333667,0.893083333 C15.2782,1.32825 14.5128667,1.91041667 13.8653667,2.60575 C17.9522,3.59741667 21.0007,7.27941667 21.0007,11.6660833 C21.0007,13.36475 20.5363667,14.9549167 19.7407,16.3280833 C19.7710333,16.3280833 19.8025333,16.33275 19.8340333,16.33275 C20.7825333,16.33275 21.6913667,16.1624167 22.5395333,15.8649167 C23.0447,14.5605833 23.3340333,13.14775 23.3340333,11.6660833 C23.3340333,6.81625 20.3555333,2.65008333 16.1333667,0.893083333" id="Fill-11" fill="#0C4627" fill-rule="evenodd" mask="url(#mask-2)"></path>
                                    <path d="M0.000583333333,22.16655 C0.000583333333,25.3888833 2.61158333,27.9998833 5.83391667,27.9998833 C9.05508333,27.9998833 11.66725,25.3888833 11.66725,22.16655 C11.66725,18.9442167 9.05508333,16.3332167 5.83391667,16.3332167 C2.61158333,16.3332167 0.000583333333,18.9442167 0.000583333333,22.16655" id="Fill-13" fill="#2FD573" fill-rule="evenodd" mask="url(#mask-2)"></path>
                                </g>
                            </g>
                        </g>
                    </g>
                </g>
            </g>
        </g>
    </g>
</svg>