<?xml version="1.0" encoding="UTF-8"?>
<svg width="24px" height="24px" viewBox="0 0 24 24" version="1.1" xmlns="http://www.w3.org/2000/svg" xmlns:xlink="http://www.w3.org/1999/xlink">
    <!-- Generator: Sketch 52.6 (67491) - http://www.bohemiancoding.com/sketch -->
    <title>Icon/Light/Flow</title>
    <desc>Created with Sketch.</desc>
    <defs>
        <polygon id="path-1" points="0.0659478261 0.353895522 11.9282087 0.353895522 11.9282087 17.7391304 0.0659478261 17.7391304"></polygon>
    </defs>
    <g id="Icon/Light/Flow" stroke="none" stroke-width="1" fill="none" fill-rule="evenodd">
        <g id="Group-14" transform="translate(0.000000, 2.610000)">
            <polygon id="Fill-1" fill="#3867D6" points="9.41958261 10.6726957 4.70932174 5.96243478 3.09297391 7.57982609 7.8021913 12.290087"></polygon>
            <polygon id="Fill-2" fill="#3867D6" points="0 10.6726957 4.71026087 15.3829565 6.3266087 13.7655652 1.6173913 9.05530435"></polygon>
            <polygon id="Fill-3" fill="#1B202A" points="0.680869565 8.1192 1.61686957 9.0552 3.09234783 7.57972174 2.15634783 6.64372174"></polygon>
            <g id="Group-13" transform="translate(1.043478, 0.689843)">
                <g id="Group-6" transform="translate(5.217391, 0.000000)">
                    <mask id="mask-2" fill="white">
                        <use xlink:href="#path-1"></use>
                    </mask>
                    <g id="Clip-5"></g>
                    <path d="M2.59116522,1.52702609 C1.0269913,3.09224348 1.0269913,5.63728696 2.59116522,7.20250435 L7.75533913,12.3656348 C8.50664348,13.1169391 8.50664348,14.3378087 7.75533913,15.0901565 C7.0029913,15.8404174 5.78316522,15.8383304 5.03186087,15.0901565 L1.54142609,11.5997217 L0.0659478261,13.0752 L3.55638261,16.5656348 C4.3389913,17.3482435 5.36577391,17.7395478 6.3936,17.7395478 C7.42142609,17.7395478 8.4482087,17.3482435 9.23081739,16.5656348 C10.7949913,15.0004174 10.7949913,12.4553739 9.23081739,10.8901565 L4.06664348,5.72702609 C3.31533913,4.97572174 3.31533913,3.75485217 4.06664348,3.00250435 C4.8189913,2.25224348 6.03881739,2.25224348 6.79012174,3.00250435 L10.4527304,6.66511304 C10.6082087,6.35311304 10.8002087,6.05572174 11.0600348,5.79693913 C11.3198609,5.53711304 11.6162087,5.34406957 11.9282087,5.18963478 L8.2656,1.52702609 C6.70038261,-0.0381913043 4.15533913,-0.0361043478 2.59116522,1.52702609" id="Fill-4" fill="#1B202A" mask="url(#mask-2)"></path>
                </g>
                <path d="M21.5530435,9.59666087 C21.3986087,9.90761739 21.2055652,10.2050087 20.9457391,10.4648348 C20.6869565,10.7246609 20.3895652,10.9177043 20.0775652,11.0721391 L21.144,12.1396174 L22.6194783,10.6630957 L21.5530435,9.59666087 Z" id="Fill-7" fill="#1B202A"></path>
                <polygon id="Fill-9" fill="#0C1ABB" points="2.04897391 6.89008696 0.573495652 8.36556522 5.28375652 13.0758261 6.75923478 11.6003478"></polygon>
                <path d="M20.9457391,5.79673043 C19.9168696,4.76681739 18.3808696,4.57377391 17.1453913,5.18942609 C16.8344348,5.34386087 16.5370435,5.53690435 16.2772174,5.79673043 C16.0173913,6.05551304 15.8253913,6.35290435 15.669913,6.66490435 C15.0542609,7.90038261 15.2473043,9.43533913 16.2772174,10.4652522 C17.3081739,11.4951652 18.842087,11.6882087 20.0775652,11.0725565 C20.3895652,10.9170783 20.6869565,10.7250783 20.9457391,10.4652522 C21.2055652,10.2054261 21.3986087,9.9069913 21.5530435,9.59707826 C22.1686957,8.3616 21.9756522,6.8256 20.9457391,5.79673043" id="Fill-11" fill="#2ED573"></path>
            </g>
        </g>
    </g>
</svg>