
<svg width="40px" height="40px" viewBox="0 0 40 40" version="1.1" xmlns="http://www.w3.org/2000/svg" xmlns:xlink="http://www.w3.org/1999/xlink">
    <g id="Desktop" stroke="none" stroke-width="1" fill="none" fill-rule="evenodd">
        <g id="Home" transform="translate(-240.000000, -1620.000000)">
            <g id="features" transform="translate(0.000000, 960.000000)">
                <g id="content" transform="translate(240.000000, 120.000000)">
                    <g id="Group-16" transform="translate(0.000000, 540.000000)">
                        <g id="icon">
                            <circle id="Oval" fill="#FFFFFF" cx="20" cy="20" r="20"></circle>
                            <g id="Group-7" transform="translate(10.000000, 10.000000)">
                                <path d="M15.1891818,2.29863636 C13.0519091,2.29863636 9.80554545,3.765 6.78554545,6.78590909 C2.61918182,10.9531818 1.40918182,15.5504545 2.92918182,17.0713636 C3.69281818,17.8340909 5.17009091,17.9240909 6.98554545,17.3186364 C9.03918182,16.635 11.2519091,15.1768182 13.2137273,13.2140909 C17.381,9.04681818 18.591,4.44863636 17.071,2.92863636 C16.6528182,2.51045455 16.001,2.29863636 15.1891818,2.29863636 M4.81372727,19.5377273 C3.51190909,19.5377273 2.42645455,19.1404545 1.64372727,18.3568182 C-0.879,15.8331818 0.814636364,10.1859091 5.50009091,5.49954545 C10.1873636,0.814090909 15.8337273,-0.878636364 18.3564545,1.64318182 C20.8800909,4.16681818 19.1855455,9.81409091 14.4991818,14.4995455 C12.341,16.6577273 9.87736364,18.2713636 7.56009091,19.0440909 C6.57190909,19.3731818 5.64827273,19.5377273 4.81372727,19.5377273" id="Fill-1" fill="#2FD573"></path>
                                <path d="M6.78545455,13.2139091 C10.9518182,17.3802727 15.5509091,18.5911818 17.0709091,17.0711818 C18.5909091,15.5502727 17.3809091,10.953 13.2136364,6.78572727 C11.2509091,4.82390909 9.03909091,3.36572727 6.98545455,2.68027273 C5.17,2.07663636 3.69272727,2.16572727 2.92909091,2.92936364 C1.40909091,4.44845455 2.61909091,9.04663636 6.78545455,13.2139091 M15.1890909,19.5239091 C12.3872727,19.5239091 8.71727273,17.7166364 5.5,14.4993636 C0.814545455,9.813 -0.88,4.16663636 1.64363636,1.643 C2.92909091,0.355727273 5.03,0.113 7.56090909,0.955727273 C9.87636364,1.72754545 12.3409091,3.34209091 14.4990909,5.50027273 C19.1854545,10.1857273 20.88,15.833 18.3572727,18.3566364 C17.5654545,19.1466364 16.4681818,19.5239091 15.1890909,19.5239091" id="Fill-3" fill="#2FD573"></path>
                                <path d="M11.8182727,9.98681818 C11.8182727,10.9904545 11.0037273,11.805 10.0000909,11.805 C8.99645455,11.805 8.18190909,10.9904545 8.18190909,9.98681818 C8.18190909,8.98318182 8.99645455,8.16863636 10.0000909,8.16863636 C11.0037273,8.16863636 11.8182727,8.98318182 11.8182727,9.98681818" id="Fill-5" fill="#1B202A"></path>
                            </g>
                        </g>
                    </g>
                </g>
            </g>
        </g>
    </g>
</svg>