<?xml version="1.0" encoding="UTF-8"?>
<svg width="24px" height="24px" viewBox="0 0 24 24" version="1.1" xmlns="http://www.w3.org/2000/svg" xmlns:xlink="http://www.w3.org/1999/xlink">
    <!-- Generator: Sketch 52.6 (67491) - http://www.bohemiancoding.com/sketch -->
    <title>Icon/Light/Health</title>
    <desc>Created with Sketch.</desc>
    <g id="Icon/Light/Health" stroke="none" stroke-width="1" fill="none" fill-rule="evenodd">
        <g id="Group-6" transform="translate(0.000000, 3.000000)">
            <path d="M20.3564,1.6758 C18.1654,-0.5152 14.6124,-0.5152 12.4214,1.6758 L12.0004,2.0978 L11.5784,1.6758 C9.3874,-0.5152 5.8354,-0.5152 3.6434,1.6758 C1.4524,3.8668 1.4524,7.4198 3.6434,9.6118 L12.0004,17.9678 L20.3564,9.6118 C22.5474,7.4198 22.5474,3.8668 20.3564,1.6758" id="Fill-1" fill="#EB3B5A"></path>
            <polygon id="Fill-3" fill="#1B202A" points="12.4238 14.919 9.5838 7.252 7.5368 10.059 -0.0002 10.059 -0.0002 8.059 6.5198 8.059 10.1638 3.063 13.0178 10.765 15.0638 8.01 23.9998 8.01 23.9998 10.01 16.0698 10.01"></polygon>
        </g>
    </g>
</svg>