
<svg width="60px" height="60px" viewBox="0 0 60 60" version="1.1" xmlns="http://www.w3.org/2000/svg" xmlns:xlink="http://www.w3.org/1999/xlink">
    <defs>
        <rect id="path-1" x="0" y="0" width="28" height="28"></rect>
    </defs>
    <g id="Desktop" stroke="none" stroke-width="1" fill="none" fill-rule="evenodd">
        <g id="Careers" transform="translate(-858.000000, -1442.000000)">
            <g id="core-values" transform="translate(0.000000, 868.000000)">
                <g id="content" transform="translate(240.000000, 120.000000)">
                    <g id="Stacked-Group" transform="translate(618.000000, 0.000000)">
                        <g id="humble" transform="translate(0.000000, 428.000000)">
                            <g id="icon" transform="translate(0.000000, 26.000000)">
                                <circle id="Oval" fill="#FFFFFF" cx="30" cy="30" r="30"></circle>
                                <g id="Icon/Light/User-Group" transform="translate(16.000000, 16.000000)">
                                    <mask id="mask-2" fill="white">
                                        <use xlink:href="#path-1"></use>
                                    </mask>
                                    <g id="Background"></g>
                                    <path d="M13.99965,17.9761167 C12.4433167,19.4787833 11.47265,21.5822833 11.47265,23.9167833 L-0.00035,23.9167833 C-0.00035,19.3527833 3.70031667,15.6532833 8.26431667,15.6532833 C10.4938167,15.6532833 12.5133167,16.5411167 13.99965,17.9761167 Z M8.26431667,13.9998833 C5.52498333,13.9998833 3.30598333,11.7808833 3.30598333,9.04155 C3.30598333,6.30338333 5.52498333,4.08321667 8.26431667,4.08321667 C11.0024833,4.08321667 13.22265,6.30338333 13.22265,9.04155 C13.22265,11.7808833 11.0024833,13.9998833 8.26431667,13.9998833 Z" id="Combined-Shape" fill="#1B202A" fill-rule="evenodd" mask="url(#mask-2)"></path>
                                    <path d="M19.73615,13.9998833 C22.4743167,13.9998833 24.6944833,11.7808833 24.6944833,9.04155 C24.6944833,6.30338333 22.4743167,4.08321667 19.73615,4.08321667 C16.9968167,4.08321667 14.7778167,6.30338333 14.7778167,9.04155 C14.7778167,11.7808833 16.9968167,13.9998833 19.73615,13.9998833" id="Fill-6" fill="#3867D6" fill-rule="evenodd" mask="url(#mask-2)"></path>
                                    <path d="M19.73615,15.65305 C17.50665,15.65305 15.4859833,16.5408833 13.99965,17.9758833 C15.5559833,19.47855 16.5278167,21.58205 16.5278167,23.91655 L27.99965,23.91655 C27.99965,19.35255 24.30015,15.65305 19.73615,15.65305" id="Fill-8" fill="#3867D6" fill-rule="evenodd" mask="url(#mask-2)"></path>
                                    <path d="M13.99965,17.9761167 C12.4433167,19.4787833 11.47265,21.5822833 11.47265,23.9167833 L16.5278167,23.9167833 C16.5278167,21.5822833 15.5559833,19.4787833 13.99965,17.9761167" id="Fill-10" fill="#1B202A" fill-rule="evenodd" mask="url(#mask-2)"></path>
                                    <path d="M13.99965,17.9761167 C12.4433167,19.4787833 11.47265,21.5822833 11.47265,23.9167833 L16.5278167,23.9167833 C16.5278167,21.5822833 15.5559833,19.4787833 13.99965,17.9761167" id="Fill-12" fill="#0C1ABB" fill-rule="evenodd" mask="url(#mask-2)"></path>
                                </g>
                            </g>
                        </g>
                    </g>
                </g>
            </g>
        </g>
    </g>
</svg>