
<svg width="60px" height="60px" viewBox="0 0 60 60" version="1.1" xmlns="http://www.w3.org/2000/svg" xmlns:xlink="http://www.w3.org/1999/xlink">
    <g id="Desktop" stroke="none" stroke-width="1" fill="none" fill-rule="evenodd">
        <g id="Careers" transform="translate(-984.000000, -2112.000000)">
            <g id="perks" transform="translate(0.000000, 1760.000000)">
                <g id="Perks" transform="translate(488.000000, 120.000000)">
                    <g id="perk" transform="translate(496.000000, 232.000000)">
                        <g id="icon">
                            <circle id="base" fill="#FFFFFF" cx="30" cy="30" r="30"></circle>
                            <g id="Icon/Light/Light-Bulb" transform="translate(16.000000, 16.000000)">
                                <path d="M12.6679,0.0742 C7.27556667,0.671533333 2.91806667,5.0967 2.39073333,10.4960333 C1.99523333,14.5583667 3.6869,18.2368667 6.51723333,20.6052 C7.35373333,21.3052 7.8904,22.2758667 8.07823333,23.3340333 L19.9199,23.3340333 C20.1019,22.2863667 20.6222333,21.3192 21.4517333,20.6308667 C24.0242333,18.4923667 25.6669,15.2735333 25.6669,11.6673667 C25.6669,4.7852 19.7075667,-0.705133333 12.6679,0.0742" id="Fill-1" fill="#2FD573"></path>
                                <path d="M10.5,23.3329833 L10.5,15.1667833 L9.3331,15.1667833 C7.40343333,15.1667833 5.8331,13.59645 5.8331,11.6667833 C5.8331,9.73711667 7.40343333,8.16678333 9.3331,8.16678333 C11.2627667,8.16678333 12.8331,9.73711667 12.8331,11.6667833 L12.8331,12.83345 L15.1664333,12.83345 L15.1664333,11.6667833 C15.1664333,9.73711667 16.7367667,8.16678333 18.6664333,8.16678333 C20.5961,8.16678333 22.1664333,9.73711667 22.1664333,11.6667833 C22.1664333,13.59645 20.5961,15.1667833 18.6664333,15.1667833 L17.5,15.1667833 L17.5,23.3329833 L19.9194333,23.3329833 C19.8727667,23.59665 19.8331,23.86265 19.8331,24.13215 L19.8331,26.9799833 C19.8331,27.5434833 19.3769333,27.99965 18.8134333,27.99965 L17.5,27.99965 L10.5,28.0001167 L9.1861,27.99965 C8.62376667,27.99965 8.16643333,27.5434833 8.16643333,26.9799833 L8.16643333,24.13215 C8.16643333,23.8614833 8.1256,23.59665 8.07893333,23.3329833 L10.5,23.3329833 Z M12.8333333,23.3329833 L15.1666667,23.3329833 L15.1666667,15.1667833 L15.1664333,15.1667833 L12.8333333,15.1667833 L12.8333333,23.3329833 Z M17.4997667,12.83345 L17.5,12.83345 L18.6664333,12.83345 C19.3104333,12.83345 19.8331,12.3107833 19.8331,11.6667833 C19.8331,11.0227833 19.3104333,10.5001167 18.6664333,10.5001167 C18.0224333,10.5001167 17.4997667,11.0227833 17.4997667,11.6667833 L17.4997667,12.83345 Z M9.3331,10.5001167 C8.6891,10.5001167 8.16643333,11.0227833 8.16643333,11.6667833 C8.16643333,12.3107833 8.6891,12.83345 9.3331,12.83345 L10.4997667,12.83345 L10.4997667,11.6667833 C10.4997667,11.0227833 9.9771,10.5001167 9.3331,10.5001167 Z" id="Combined-Shape" fill="#1B202A"></path>
                            </g>
                        </g>
                    </g>
                </g>
            </g>
        </g>
    </g>
</svg>