
<svg width="40px" height="40px" viewBox="0 0 40 40" version="1.1" xmlns="http://www.w3.org/2000/svg" xmlns:xlink="http://www.w3.org/1999/xlink">
    <defs>
        <polygon id="path-1" points="0.6068 0.0002 21.3928 0.0002 21.3928 24 0.6068 24"></polygon>
    </defs>
    <g id="Desktop" stroke="none" stroke-width="1" fill="none" fill-rule="evenodd">
        <g id="Home" transform="translate(-736.000000, -1620.000000)">
            <g id="features" transform="translate(0.000000, 960.000000)">
                <g id="content" transform="translate(240.000000, 120.000000)">
                    <g id="Group-18" transform="translate(496.000000, 540.000000)">
                        <g id="icon">
                            <circle id="Oval" fill="#FFFFFF" cx="20" cy="20" r="20"></circle>
                            <g id="Group-6" transform="translate(9.000000, 8.000000)">
                                <g id="Group-3">
                                    <mask id="mask-2" fill="white">
                                        <use xlink:href="#path-1"></use>
                                    </mask>
                                    <g id="Clip-2"></g>
                                    <path d="M10.9998,19.0002 C7.1338,19.0002 3.9998,15.8662 3.9998,12.0002 C3.9998,8.1342 7.1338,5.0002 10.9998,5.0002 C14.8658,5.0002 17.9998,8.1342 17.9998,12.0002 C17.9998,15.8662 14.8658,19.0002 10.9998,19.0002 Z M10.9998,0.0002 L0.6068,6.0002 L0.6068,18.0002 L10.9998,24.0002 L21.3928,18.0002 L21.3928,6.0002 L10.9998,0.0002 Z" id="Fill-1" fill="#2FD573" mask="url(#mask-2)"></path>
                                </g>
                                <path d="M10.9998,8.9855 C9.3458,8.9855 7.9998,10.3315 7.9998,11.9855 C7.9998,13.6395 9.3458,14.9855 10.9998,14.9855 C12.6538,14.9855 13.9998,13.6395 13.9998,11.9855 C13.9998,10.3315 12.6538,8.9855 10.9998,8.9855 M10.9998,16.9855 C8.2428,16.9855 5.9998,14.7425 5.9998,11.9855 C5.9998,9.2285 8.2428,6.9855 10.9998,6.9855 C13.7568,6.9855 15.9998,9.2285 15.9998,11.9855 C15.9998,14.7425 13.7568,16.9855 10.9998,16.9855" id="Fill-4" fill="#1B202A"></path>
                            </g>
                        </g>
                    </g>
                </g>
            </g>
        </g>
    </g>
</svg>