
<svg width="216px" height="248px" viewBox="0 0 216 248" version="1.1" xmlns="http://www.w3.org/2000/svg" xmlns:xlink="http://www.w3.org/1999/xlink">
    <g id="Desktop" stroke="none" stroke-width="1" fill="none" fill-rule="evenodd">
        <g id="Platform/Overview" transform="translate(-504.000000, -4192.000000)">
            <rect fill="#FFFFFF" x="0" y="0" width="1920" height="6018"></rect>
            <g id="Features" transform="translate(488.000000, 2400.000000)">
                <g id="Icon/Light/Management" transform="translate(0.000000, 1792.000000)">
                    <path d="M123.997933,196.3354 C84.0492667,196.3354 51.6646,163.950733 51.6646,124.002067 C51.6646,84.0534 84.0492667,51.6687333 123.997933,51.6687333 C163.9466,51.6687333 196.331267,84.0534 196.331267,124.002067 C196.331267,163.950733 163.9466,196.3354 123.997933,196.3354 Z M123.997933,0.00206666667 L16.6036,62.0020667 L16.6036,186.002067 L123.997933,248.002067 L231.392267,186.002067 L231.392267,62.0020667 L123.997933,0.00206666667 Z" id="Fill-1" fill="#2FD573"></path>
                    <path d="M123.997933,92.8501667 C106.9066,92.8501667 92.9979333,106.758833 92.9979333,123.850167 C92.9979333,140.9415 106.9066,154.850167 123.997933,154.850167 C141.089267,154.850167 154.997933,140.9415 154.997933,123.850167 C154.997933,106.758833 141.089267,92.8501667 123.997933,92.8501667 M123.997933,175.516833 C95.5089333,175.516833 72.3312667,152.339167 72.3312667,123.850167 C72.3312667,95.3611667 95.5089333,72.1835 123.997933,72.1835 C152.486933,72.1835 175.6646,95.3611667 175.6646,123.850167 C175.6646,152.339167 152.486933,175.516833 123.997933,175.516833" id="Fill-4" fill="#1B202A"></path>
                </g>
            </g>
        </g>
    </g>
</svg>