
<svg width="218px" height="218px" viewBox="0 0 218 218" version="1.1" xmlns="http://www.w3.org/2000/svg" xmlns:xlink="http://www.w3.org/1999/xlink">
    <g id="Desktop" stroke="none" stroke-width="1" fill="none" fill-rule="evenodd">
        <g id="Platform/Overview" transform="translate(-503.000000, -3759.000000)">
            <rect fill="#FFFFFF" x="0" y="0" width="1920" height="6018"></rect>
            <g id="Features" transform="translate(488.000000, 2400.000000)">
                <g id="Icon/Light/Governance" transform="translate(0.000000, 1344.000000)">
                    <g id="Group-7" transform="translate(10.333333, 10.333333)">
                        <path d="M172.650367,26.1278333 C148.3567,26.1278333 111.456367,42.7955 77.1290333,77.1331667 C29.7713667,124.501167 16.0177,176.756833 33.2950333,194.0445 C41.9750333,202.714167 58.7667,203.737167 79.4023667,196.855167 C102.745367,189.0845 127.8967,172.509833 150.196033,150.200167 C197.564033,102.832167 211.3177,50.5661667 194.040367,33.2888333 C189.287033,28.5355 181.878033,26.1278333 172.650367,26.1278333 M54.7160333,222.078833 C39.9187,222.078833 27.5807,217.563167 18.6837,208.655833 C-9.9913,179.9705 9.2597,115.779833 62.5177,62.5115 C115.796367,9.2535 179.9767,-9.98716667 208.6517,18.6775 C237.337033,47.3628333 218.0757,111.5535 164.807367,164.8115 C140.276033,189.342833 112.2727,207.6845 85.9330333,216.467833 C74.7007,220.2085 64.2020333,222.078833 54.7160333,222.078833" id="Fill-1" fill="#2FD573"></path>
                        <path d="M77.128,150.1981 C124.485667,197.555767 176.762,211.319767 194.039333,194.042433 C211.316667,176.754767 197.563,124.4991 150.195,77.1311 C127.885333,54.8317667 102.744333,38.2571 79.4013333,30.4657667 C58.7656667,23.6044333 41.974,24.6171 33.294,33.2971 C16.0166667,50.5641 29.7703333,102.8301 77.128,150.1981 M172.649333,221.921767 C140.802,221.921767 99.0863333,201.3791 62.5166667,164.809433 C9.25866667,111.5411 -10.0026667,47.3607667 18.6826667,18.6754333 C33.294,4.04343333 57.1743333,1.28443333 85.9423333,10.8634333 C112.261333,19.6364333 140.275,37.9884333 164.806333,62.5197667 C218.074667,115.777767 237.336,179.968433 208.661,208.653767 C199.660667,217.633433 187.188333,221.921767 172.649333,221.921767" id="Fill-3" fill="#2FD573"></path>
                        <path d="M134.334367,113.516833 C134.334367,124.924833 125.0757,134.1835 113.6677,134.1835 C102.2597,134.1835 93.0010333,124.924833 93.0010333,113.516833 C93.0010333,102.108833 102.2597,92.8501667 113.6677,92.8501667 C125.0757,92.8501667 134.334367,102.108833 134.334367,113.516833" id="Fill-5" fill="#1B202A"></path>
                    </g>
                </g>
            </g>
        </g>
    </g>
</svg>