
<svg width="245px" height="181px" viewBox="0 0 245 181" version="1.1" xmlns="http://www.w3.org/2000/svg" xmlns:xlink="http://www.w3.org/1999/xlink">
    <g id="Desktop" stroke="none" stroke-width="1" fill="none" fill-rule="evenodd">
        <g id="Platform/Overview" transform="translate(-488.000000, -4671.000000)">
            <rect fill="#FFFFFF" x="0" y="0" width="1920" height="6018"></rect>
            <g id="Features" transform="translate(488.000000, 2400.000000)">
                <g id="Icon/Light/Workflow" transform="translate(0.000000, 2240.000000)">
                    <g id="Group-8" transform="translate(0.000000, 31.000000)">
                        <polygon id="Fill-1" fill="#2ED573" points="0 99.9511884 48.6726957 148.623884 97.3346087 99.9511884 48.6726957 51.2784928"></polygon>
                        <path d="M130.758539,180.100475 C120.148452,180.100475 109.527583,176.056997 101.440626,167.970041 L7.02810435,73.5575188 L22.274713,58.3109101 L116.687235,152.723432 C124.450713,160.465345 137.055583,160.48691 144.840626,152.723432 C152.593322,144.959954 152.593322,132.333519 144.840626,124.580823 L91.466713,71.2176928 C75.3035826,55.0545623 75.3035826,28.7449971 91.466713,12.5818667 C107.629843,-3.58126377 133.928626,-3.60282899 150.113322,12.5818667 L244.525843,106.983606 L229.279235,122.230214 L134.866713,27.8284754 C127.092452,20.0757797 114.487583,20.0757797 106.724104,27.8284754 C98.9606261,35.5919536 98.9606261,48.2183884 106.724104,55.9710841 L160.087235,109.334214 C176.250365,125.497345 176.250365,151.80691 160.087235,167.970041 C152.000278,176.056997 141.379409,180.100475 130.758539,180.100475" id="Fill-2" fill="#1B202A"></path>
                        <path d="M227.222991,104.927362 C213.90647,118.254667 192.308904,118.254667 178.9816,104.927362 C165.665078,91.6108406 165.665078,70.0132754 178.9816,56.685971 C192.308904,43.3694493 213.90647,43.3694493 227.222991,56.685971 C240.539513,70.0132754 240.539513,91.6108406 227.222991,104.927362" id="Fill-5" fill="#2ED573"></path>
                    </g>
                </g>
            </g>
        </g>
    </g>
</svg>