
<svg width="60px" height="60px" viewBox="0 0 60 60" version="1.1" xmlns="http://www.w3.org/2000/svg" xmlns:xlink="http://www.w3.org/1999/xlink">
    <defs>
        <rect id="path-1" x="0" y="0" width="28" height="28"></rect>
    </defs>
    <g id="Desktop" stroke="none" stroke-width="1" fill="none" fill-rule="evenodd">
        <g id="Careers" transform="translate(-858.000000, -1218.000000)">
            <g id="core-values" transform="translate(0.000000, 868.000000)">
                <g id="content" transform="translate(240.000000, 120.000000)">
                    <g id="Stacked-Group" transform="translate(618.000000, 0.000000)">
                        <g id="passion" transform="translate(0.000000, 204.000000)">
                            <g id="icon" transform="translate(0.000000, 26.000000)">
                                <circle id="Oval" fill="#FFFFFF" cx="30" cy="30" r="30"></circle>
                                <g id="Icon/Light/Activity-Passion" transform="translate(16.000000, 16.000000)">
                                    <mask id="mask-2" fill="white">
                                        <use xlink:href="#path-1"></use>
                                    </mask>
                                    <g id="Background"></g>
                                    <path d="M26.6578667,11.1573 C25.7350333,10.2344667 24.5170333,9.79696667 23.3083667,9.82496667 C23.3772,11.5866333 22.7600333,13.3693 21.4160333,14.7133 L15.7495333,20.3786333 L19.8328667,24.4619667 L26.6578667,17.6381333 C28.4475333,15.8484667 28.4475333,12.9469667 26.6578667,11.1573" id="Fill-1" fill="#1B202A" fill-rule="evenodd" mask="url(#mask-2)"></path>
                                    <path d="M13.0088,11.1573 C14.7984667,9.36763333 17.6999667,9.36763333 19.4896333,11.1573 L19.8338,11.5014667 L20.1779667,11.1573 C21.0448,10.2904667 22.1718,9.85296667 23.3081333,9.82496667 C23.2451333,8.2383 22.6279667,6.6668 21.4158,5.45463333 C18.8596333,2.89846667 14.7144667,2.89846667 12.1583,5.45463333 L11.6671333,5.94696667 L11.1759667,5.45463333 C8.61863333,2.89846667 4.47463333,2.89846667 1.9173,5.45463333 C-0.638866667,8.01196667 -0.638866667,12.1559667 1.9173,14.7133 L11.6671333,24.4619667 L15.7504667,20.3786333 L13.0088,17.6381333 C11.2191333,15.8484667 11.2191333,12.9469667 13.0088,11.1573" id="Fill-4" fill="#EB3B5A" fill-rule="evenodd" mask="url(#mask-2)"></path>
                                    <path d="M23.30825,9.82543333 C22.1719167,9.85226667 21.0449167,10.2897667 20.1769167,11.1577667 L19.83275,11.5019333 L19.48975,11.1577667 C17.6989167,9.36693333 14.7985833,9.36693333 13.0089167,11.1577667 C11.21925,12.9474333 11.21925,15.8477667 13.0089167,17.6374333 L15.7494167,20.3791 L21.4159167,14.7126 C22.7599167,13.3686 23.37825,11.5871 23.30825,9.82543333" id="Fill-6" fill="#461220" fill-rule="evenodd" mask="url(#mask-2)"></path>
                                </g>
                            </g>
                        </g>
                    </g>
                </g>
            </g>
        </g>
    </g>
</svg>