
<svg width="60px" height="60px" viewBox="0 0 60 60" version="1.1" xmlns="http://www.w3.org/2000/svg" xmlns:xlink="http://www.w3.org/1999/xlink">
    <g id="Desktop" stroke="none" stroke-width="1" fill="none" fill-rule="evenodd">
        <g id="Careers" transform="translate(-984.000000, -2236.000000)">
            <g id="perks" transform="translate(0.000000, 1760.000000)">
                <g id="Perks" transform="translate(488.000000, 120.000000)">
                    <g id="perk" transform="translate(496.000000, 356.000000)">
                        <g id="icon">
                            <circle id="base" fill="#FFFFFF" cx="30" cy="30" r="30"></circle>
                            <g id="Icon/Light/Sun" transform="translate(16.000000, 16.000000)">
                                <path d="M19.8335667,13.9998833 C19.8335667,17.2222167 17.2225667,19.8332167 14.0002333,19.8332167 C10.7779,19.8332167 8.1669,17.2222167 8.1669,13.9998833 C8.1669,10.77755 10.7779,8.16655 14.0002333,8.16655 C17.2225667,8.16655 19.8335667,10.77755 19.8335667,13.9998833" id="Fill-1" fill="#3867D6"></path>
                                <path d="M23.8996333,4.10048331 L25.137,5.33785 L21.8365,8.63718333 L19.362,6.16268333 L22.6625,2.86335 L23.8996333,4.10048331 L20.59925,7.3997 L23.89975,4.10036667 Z M28,13.9998833 L28,15.75 L23.3333333,15.75 L23.3333333,12.25 L28,12.25 L28,13.9998833 L23.3335667,13.9998833 L28.0002333,13.9998833 Z M14.0002333,23.3333333 L15.75,23.3333333 L15.75,28 L12.25,28 L12.25,23.3333333 L14.0002333,23.3333333 L14.0002333,27.9998833 L14.0002333,23.3333333 Z M4.10065833,23.8994583 L2.86346667,22.6622667 L6.1628,19.3629333 L8.6373,21.8374333 L5.33796667,25.1367667 L4.10065833,23.8994583 L7.39993333,20.6001833 L4.1006,23.8995167 Z M4.66666667,13.9998833 L4.66666667,15.75 L0,15.75 L0,12.25 L4.66666667,12.25 L4.66666667,13.9998833 L0.000233333334,13.9998833 L4.66666667,13.9998833 Z M4.100775,4.10054167 L5.33796667,2.86335 L8.6373,6.16268333 L6.1628,8.63718333 L2.86346667,5.33785 L4.100775,4.10054167 L7.39993333,7.3997 L4.1006,4.10036667 Z M14.0002333,-2.91618671e-14 L15.75,-2.91618671e-14 L15.75,4.66666667 L12.25,4.66666667 L12.25,-2.91618671e-14 L14.0002333,-2.91618671e-14 L14.0002333,4.66655 L14.0002333,-0.000116666667 Z M22.6625,25.1367667 L19.362,21.8374333 L21.8365,19.3629333 L25.137,22.6622667 L22.6625,25.1367667 Z" id="Combined-Shape" fill="#1B202A"></path>
                            </g>
                        </g>
                    </g>
                </g>
            </g>
        </g>
    </g>
</svg>