
<svg width="60px" height="60px" viewBox="0 0 60 60" version="1.1" xmlns="http://www.w3.org/2000/svg" xmlns:xlink="http://www.w3.org/1999/xlink">
    <defs>
        <polygon id="path-1" points="0.000116666667 0.000233333333 25.6666667 0.000233333333 25.6666667 25.6666667 0.000116666667 25.6666667"></polygon>
        <polygon id="path-3" points="0.000116666667 0.000233333333 25.6666667 0.000233333333 25.6666667 25.6669 0.000116666667 25.6669"></polygon>
    </defs>
    <g id="Desktop" stroke="none" stroke-width="1" fill="none" fill-rule="evenodd">
        <g id="Careers" transform="translate(-984.000000, -1988.000000)">
            <g id="perks" transform="translate(0.000000, 1760.000000)">
                <g id="Perks" transform="translate(488.000000, 120.000000)">
                    <g id="perk" transform="translate(496.000000, 108.000000)">
                        <g id="icon">
                            <circle id="base" fill="#FFFFFF" cx="30" cy="30" r="30"></circle>
                            <g id="Icon/Light/Activity-Snacks" transform="translate(16.000000, 16.000000)">
                                <g id="Group-29" transform="translate(1.166667, 0.000000)">
                                    <g id="Group-3" transform="translate(0.000000, 2.333333)">
                                        <mask id="mask-2" fill="white">
                                            <use xlink:href="#path-1"></use>
                                        </mask>
                                        <g id="Clip-2"></g>
                                        <path d="M12.83345,18.1804 C9.88061667,18.1804 7.48661667,15.7864 7.48661667,12.8335667 C7.48661667,9.88073333 9.88061667,7.48673333 12.83345,7.48673333 C15.7862833,7.48673333 18.1802833,9.88073333 18.1802833,12.8335667 C18.1802833,15.7864 15.7862833,18.1804 12.83345,18.1804 M23.5282833,9.62523333 C22.6381167,9.62523333 21.8762833,9.0804 21.5542833,8.30806667 C21.1727833,8.46673333 20.75745,8.5554 20.31995,8.5554 C18.5466167,8.5554 17.1116167,7.1204 17.1116167,5.34706667 C17.1116167,4.90956667 16.0417833,3.0289 16.0417833,2.13873333 C16.0417833,1.5309 14.1821167,0.000233333333 12.83345,0.000233333333 C5.74595,0.000233333333 0.000116666667,5.74606667 0.000116666667,12.8335667 C0.000116666667,19.9210667 5.74595,25.6669 12.83345,25.6669 C19.92095,25.6669 25.6667833,19.9210667 25.6667833,12.8335667 C25.6667833,11.4849 25.4556167,10.1840667 25.06945,8.96256667 C24.6797833,9.36856667 24.1361167,9.62523333 23.5282833,9.62523333" id="Fill-1" fill="#1B202A" mask="url(#mask-2)"></path>
                                    </g>
                                    <g id="Group-6">
                                        <mask id="mask-4" fill="white">
                                            <use xlink:href="#path-3"></use>
                                        </mask>
                                        <g id="Clip-5"></g>
                                        <path d="M12.83345,18.1804 C9.88061667,18.1804 7.48661667,15.7864 7.48661667,12.8335667 C7.48661667,9.88073333 9.88061667,7.48673333 12.83345,7.48673333 C15.7862833,7.48673333 18.1802833,9.88073333 18.1802833,12.8335667 C18.1802833,15.7864 15.7862833,18.1804 12.83345,18.1804 M23.5282833,9.62523333 C22.6381167,9.62523333 21.8762833,9.0804 21.5542833,8.30806667 C21.1727833,8.46673333 20.75745,8.5554 20.31995,8.5554 C18.5466167,8.5554 17.1116167,7.1204 17.1116167,5.34706667 C17.1116167,4.90956667 17.2002833,4.49423333 17.35895,4.11273333 C16.58545,3.79073333 16.0417833,3.0289 16.0417833,2.13873333 C16.0417833,1.5309 16.29845,0.987233333 16.7032833,0.597566667 C15.48295,0.2114 14.1821167,0.000233333333 12.83345,0.000233333333 C5.74595,0.000233333333 0.000116666667,5.74606667 0.000116666667,12.8335667 C0.000116666667,19.9210667 5.74595,25.6669 12.83345,25.6669 C19.92095,25.6669 25.6667833,19.9210667 25.6667833,12.8335667 C25.6667833,11.4849 25.4556167,10.1840667 25.06945,8.96256667 C24.6797833,9.36856667 24.1361167,9.62523333 23.5282833,9.62523333" id="Fill-4" fill="#EB3B5A" mask="url(#mask-4)"></path>
                                    </g>
                                    <polygon id="Fill-7" fill="#1B202A" points="6.23443333 6.79618333 5.64876667 6.26185 7.54693333 4.18051667 8.1326 4.71485"></polygon>
                                    <polygon id="Fill-9" fill="#1B202A" points="4.64508333 14.4229167 4.08508333 14.9829167 2.09241667 12.9914167 2.65358333 12.4314167"></polygon>
                                    <polygon id="Fill-11" fill="#1B202A" points="11.0287333 20.5137333 11.5199 21.1355667 9.30673333 22.8797333 8.81673333 22.2579"></polygon>
                                    <polygon id="Fill-13" fill="#1B202A" points="8.00496667 18.3341667 8.10413333 19.1205 5.3088 19.474 5.20963333 18.6876667"></polygon>
                                    <polygon id="Fill-15" fill="#1B202A" points="15.6282 22.0312167 15.7273667 22.81755 12.9320333 23.1722167 12.8328667 22.3858833"></polygon>
                                    <polygon id="Fill-17" fill="#1B202A" points="17.5023333 20.49775 17.1068333 21.18375 14.6673333 19.7755833 15.0628333 19.0895833"></polygon>
                                    <polygon id="Fill-19" fill="#1B202A" points="21.4957167 15.93935 21.8923833 16.62535 19.4528833 18.0335167 19.0562167 17.3475167"></polygon>
                                    <polygon id="Fill-21" fill="#1B202A" points="21.89215 19.46665 22.28765 20.15265 19.84815 21.5608167 19.45265 20.8748167"></polygon>
                                    <polygon id="Fill-23" fill="#1B202A" points="23.5601333 13.2140167 22.9709667 13.7436833 21.0879667 11.64835 21.6771333 11.1186833"></polygon>
                                    <polygon id="Fill-25" fill="#1B202A" points="11.5368167 6.10015 10.9768167 5.54015 12.9683167 3.54748333 13.5283167 4.10865"></polygon>
                                    <polygon id="Fill-27" fill="#1B202A" points="3.86925 10.1003 3.93458333 9.31046667 6.74158333 9.53913333 6.67741667 10.3278"></polygon>
                                </g>
                            </g>
                        </g>
                    </g>
                </g>
            </g>
        </g>
    </g>
</svg>