
<svg width="60px" height="60px" viewBox="0 0 60 60" version="1.1" xmlns="http://www.w3.org/2000/svg" xmlns:xlink="http://www.w3.org/1999/xlink">
    <defs>
        <polygon id="path-1" points="1.0948 0 7.59896667 0 7.59896667 23.3340333 1.0948 23.3340333"></polygon>
        <polygon id="path-3" points="0.0918166667 0.000116666667 17.49965 0.000116666667 17.49965 18.6666667 0.0918166667 18.6666667"></polygon>
        <polygon id="path-5" points="0 0 7.77746667 0 7.77746667 23.3329833 0 23.3329833"></polygon>
    </defs>
    <g id="Desktop" stroke="none" stroke-width="1" fill="none" fill-rule="evenodd">
        <g id="Careers" transform="translate(-488.000000, -2236.000000)">
            <g id="perks" transform="translate(0.000000, 1760.000000)">
                <g id="Perks" transform="translate(488.000000, 120.000000)">
                    <g id="perk" transform="translate(0.000000, 356.000000)">
                        <g id="icon">
                            <circle id="base" fill="#FFFFFF" cx="30" cy="30" r="30"></circle>
                            <g id="Icon/Light/Activity-Bowling" transform="translate(16.000000, 16.000000)">
                                <g id="Group-18">
                                    <g id="Group-3" transform="translate(4.666667, 0.000000)">
                                        <mask id="mask-2" fill="white">
                                            <use xlink:href="#path-1"></use>
                                        </mask>
                                        <g id="Clip-2"></g>
                                        <path d="M7.59896667,11.8855333 C6.95613333,10.5322 6.31096667,9.4087 6.31096667,8.5757 C6.31096667,6.9167 7.26296667,4.69536667 7.26296667,2.4927 C7.26296667,0.290033333 5.52346667,-0.000466666667 4.98446667,-0.000466666667 C4.4443,-0.000466666667 2.70596667,0.290033333 2.70596667,2.4927 C2.70596667,4.69536667 3.6568,6.9167 3.6568,8.5757 C3.6568,10.2347 1.0948,13.0440333 1.0948,16.5393667 C1.0948,20.0358667 3.40013333,23.3340333 3.40013333,23.3340333 L4.98446667,23.3340333 L5.9248,23.3340333 C5.1303,21.9597 4.66596667,20.3683667 4.66596667,18.6662 C4.66596667,15.9933667 5.79763333,13.5877 7.59896667,11.8855333" id="Fill-1" fill="#1B202A" mask="url(#mask-2)"></path>
                                    </g>
                                    <g id="Group-6" transform="translate(10.500000, 9.333333)">
                                        <mask id="mask-4" fill="white">
                                            <use xlink:href="#path-3"></use>
                                        </mask>
                                        <g id="Clip-5"></g>
                                        <path d="M8.16631667,0.000116666667 C5.68598333,0.000116666667 3.43781667,0.974283333 1.76598333,2.55278333 C2.40415,3.89561667 3.03881667,5.46595 3.03881667,7.20661667 C3.03881667,10.7031167 0.733483333,14.0001167 0.733483333,14.0001167 L0.0918166667,14.0001167 C1.70648333,16.7872833 4.71415,18.6667833 8.16631667,18.6667833 C13.3218167,18.6667833 17.49965,14.4877833 17.49965,9.33345 C17.49965,4.17911667 13.3218167,0.000116666667 8.16631667,0.000116666667" id="Fill-4" fill="#3867D6" mask="url(#mask-4)"></path>
                                    </g>
                                    <path d="M13.5394,16.5396 C13.5394,14.7989333 12.9035667,13.2286 12.2654,11.8857667 C10.4640667,13.5879333 9.33356667,15.9924333 9.33356667,18.6664333 C9.33356667,20.3686 9.79673333,21.9599333 10.5924,23.3331 L11.2329,23.3331 C11.2329,23.3331 13.5394,20.0361 13.5394,16.5396" id="Fill-7" fill="#0C1ABB"></path>
                                    <path d="M22.2825167,16.0258 C22.2825167,16.6698 22.8051833,17.1924667 23.4491833,17.1924667 C24.09435,17.1924667 24.61585,16.6698 24.61585,16.0258 C24.61585,15.3806333 24.09435,14.8591333 23.4491833,14.8591333 C22.8051833,14.8591333 22.2825167,15.3806333 22.2825167,16.0258" id="Fill-9" fill="#1B202A"></path>
                                    <path d="M19.9491833,13.6924667 C19.9491833,14.3364667 20.47185,14.8591333 21.11585,14.8591333 C21.7610167,14.8591333 22.2825167,14.3364667 22.2825167,13.6924667 C22.2825167,13.0473 21.7610167,12.5258 21.11585,12.5258 C20.47185,12.5258 19.9491833,13.0473 19.9491833,13.6924667" id="Fill-11" fill="#1B202A"></path>
                                    <path d="M18.7825167,17.1924667 C18.7825167,17.8364667 19.3051833,18.3591333 19.9491833,18.3591333 C20.59435,18.3591333 21.11585,17.8364667 21.11585,17.1924667 C21.11585,16.5473 20.59435,16.0258 19.9491833,16.0258 C19.3051833,16.0258 18.7825167,16.5473 18.7825167,17.1924667" id="Fill-13" fill="#1B202A"></path>
                                    <g id="Group-17">
                                        <mask id="mask-6" fill="white">
                                            <use xlink:href="#path-5"></use>
                                        </mask>
                                        <g id="Clip-16"></g>
                                        <path d="M5.21663333,8.57581667 C5.21663333,6.91681667 6.16746667,4.69548333 6.16746667,2.49281667 C6.16746667,0.288983333 4.42796667,-0.00035 3.88896667,-0.00035 C3.3488,-0.00035 1.61046667,0.288983333 1.61046667,2.49281667 C1.61046667,4.69548333 2.56246667,6.91681667 2.56246667,8.57581667 C2.56246667,10.2348167 -0.0007,13.04415 -0.0007,16.5394833 C-0.0007,20.0359833 2.3058,23.3329833 2.3058,23.3329833 L3.88896667,23.3329833 L5.47213333,23.3329833 C5.47213333,23.3329833 7.77746667,20.0359833 7.77746667,16.5394833 C7.77746667,13.04415 5.21663333,10.2348167 5.21663333,8.57581667" id="Fill-15" fill="#1B202A" mask="url(#mask-6)"></path>
                                    </g>
                                </g>
                            </g>
                        </g>
                    </g>
                </g>
            </g>
        </g>
    </g>
</svg>