<?xml version="1.0" encoding="UTF-8"?>
<svg width="24px" height="24px" viewBox="0 0 24 24" version="1.1" xmlns="http://www.w3.org/2000/svg" xmlns:xlink="http://www.w3.org/1999/xlink">
    <!-- Generator: Sketch 52.6 (67491) - http://www.bohemiancoding.com/sketch -->
    <title>Icon/Light/User-Feedback</title>
    <desc>Created with Sketch.</desc>
    <g id="Icon/Light/User-Feedback" stroke="none" stroke-width="1" fill="none" fill-rule="evenodd">
        <path d="M17.2811,0.0004 C13.5711,0.0004 10.5631,3.0084 10.5631,6.7184 C10.5631,8.5924 11.3321,10.2854 12.5691,11.5044 L10.6671,13.4374 L17.2811,13.4374 C20.9921,13.4374 24.0001,10.4294 24.0001,6.7184 C24.0001,3.0084 20.9921,0.0004 17.2811,0.0004" id="Fill-4" fill="#2FD573"></path>
        <path d="M6.6668,17.3334 C2.9848,17.3334 -0.0002,20.3174 -0.0002,24.0004 L13.3338,24.0004 C13.3338,20.3174 10.3488,17.3334 6.6668,17.3334 M10.6668,12.0004 C10.6668,14.2094 8.8758,16.0004 6.6668,16.0004 C4.4578,16.0004 2.6668,14.2094 2.6668,12.0004 C2.6668,9.7904 4.4578,8.0004 6.6668,8.0004 C8.8758,8.0004 10.6668,9.7904 10.6668,12.0004" id="Fill-1" fill="#1B202A"></path>
        <path d="M14.2811,5.7182 C14.8341,5.7182 15.2811,6.1662 15.2811,6.7182 C15.2811,7.2712 14.8341,7.7182 14.2811,7.7182 C13.7291,7.7182 13.2811,7.2712 13.2811,6.7182 C13.2811,6.1662 13.7291,5.7182 14.2811,5.7182 Z M17.2811,5.7182 C17.8341,5.7182 18.2811,6.1662 18.2811,6.7182 C18.2811,7.2712 17.8341,7.7182 17.2811,7.7182 C16.7291,7.7182 16.2811,7.2712 16.2811,6.7182 C16.2811,6.1662 16.7291,5.7182 17.2811,5.7182 Z M20.2811,5.7182 C20.8341,5.7182 21.2811,6.1662 21.2811,6.7182 C21.2811,7.2712 20.8341,7.7182 20.2811,7.7182 C19.7291,7.7182 19.2811,7.2712 19.2811,6.7182 C19.2811,6.1662 19.7291,5.7182 20.2811,5.7182 Z" id="Combined-Shape" fill="#1B202A"></path>
    </g>
</svg>