
<svg width="40px" height="40px" viewBox="0 0 40 40" version="1.1" xmlns="http://www.w3.org/2000/svg" xmlns:xlink="http://www.w3.org/1999/xlink">
    <g id="Desktop" stroke="none" stroke-width="1" fill="none" fill-rule="evenodd">
        <g id="Home" transform="translate(-1232.000000, -1620.000000)">
            <g id="features" transform="translate(0.000000, 960.000000)">
                <g id="content" transform="translate(240.000000, 120.000000)">
                    <g id="Group-17" transform="translate(992.000000, 540.000000)">
                        <g id="icon">
                            <circle id="Oval" fill="#FFFFFF" cx="20" cy="20" r="20"></circle>
                            <g transform="translate(8.000000, 8.000000)">
                                <rect id="Rectangle" x="0" y="0" width="24" height="24"></rect>
                                <g id="Group-4" transform="translate(0.000000, 3.512195)">
                                    <path d="M2.93549344,6.53621993 L7.6947015,11.295428 L11.2215432,14.8217178 C12.0869039,15.6870785 13.4964264,15.6859747 14.3634428,14.8189583 C15.2310111,13.95139 15.2326667,12.5413156 14.367306,11.6759549 L9.1492029,6.4578518 C7.67510947,4.98375836 7.67676513,2.5835965 9.15251423,1.1078474 C10.6282633,-0.3679017 13.0284252,-0.369557365 14.5025186,1.10453607 L18.1427733,4.74479076 C17.922018,4.87945149 17.710093,5.03398019 17.5191396,5.22493352 C17.3281863,5.41588684 17.1736576,5.62781192 17.0389969,5.8485672 L13.3987422,2.20831251 C12.5333815,1.34295178 11.123859,1.34405556 10.2562907,2.21162384 C9.38872239,3.07919212 9.38761861,4.48871463 10.2529793,5.35407536 L15.4710825,10.5721785 C16.9451759,12.0462719 16.9435202,14.4464338 15.4672192,15.9227348 C13.9914701,17.3984839 11.5918602,17.3995876 10.1177667,15.9254942 L6.59147695,12.3992044 L1.831717,7.63999636 L0.885780592,6.69405996 L1.98955703,5.59028352 L2.93549344,6.53621993 Z M21.6129361,10.4225064 C21.8331395,10.2872938 22.0456164,10.133317 22.2365698,9.94236364 C22.4275231,9.75141031 22.5814999,9.53893335 22.7167125,9.31872995 L23.7343944,10.3364118 L22.6306179,11.4401883 L21.6129361,10.4225064 Z" id="Combined-Shape" fill="#1B202A"></path>
                                    <path d="M4.97379915e-14,9.47171336 L1.831717,7.63999636 L6.59120101,12.3994804 L4.759484,14.2311974 L4.97379915e-14,9.47171336 Z M2.93549344,6.53621993 L4.76665855,4.70505481 L9.52614256,9.46453882 L7.69497744,11.2957039 L2.93549344,6.53621993 Z M22.2396603,5.2210703 C23.352267,6.33367695 23.5045881,8.03238889 22.7170436,9.31884033 L18.1424422,4.74423888 C19.4288936,3.95669439 21.1276056,4.10901554 22.2396603,5.2210703 Z M17.5152212,9.9455094 C16.4031665,8.83345464 16.2508453,7.1347427 17.0383898,5.84829126 L21.6129913,10.4228927 C20.3265398,11.2104372 18.627276,11.0575642 17.5152212,9.9455094 Z M17.0388313,5.84840164 C17.173492,5.62764635 17.3280207,5.41572127 17.5189741,5.22476795 C17.7099274,5.03381463 17.9218525,4.87928592 18.1426078,4.7446252 L22.7166573,9.31867476 C22.5814447,9.53887816 22.4274679,9.75135513 22.2365146,9.94230845 C22.0455612,10.1332618 21.8330843,10.2872386 21.6128809,10.4224512 L17.0388313,5.84840164 Z" id="Combined-Shape" fill="#2ED573"></path>
                                </g>
                            </g>
                        </g>
                    </g>
                </g>
            </g>
        </g>
    </g>
</svg>